<?xml version="1.0" encoding="UTF-8"?>
<svg width="22px" height="22px" viewBox="0 0 22 22" version="1.1" xmlns="http://www.w3.org/2000/svg" xmlns:xlink="http://www.w3.org/1999/xlink">
    <!-- Generator: Sketch 59.1 (86144) - https://sketch.com -->
    <title>icon/info/default</title>
    <desc>Created with Sketch.</desc>
    <g id="icon/info/default" stroke="none" stroke-width="1" fill="none" fill-rule="evenodd">
        <path d="M11,9.33333333 C10.4477333,9.33333333 10,9.78106667 10,10.3333333 L10,16.3333333 C10,16.8856 10.4477333,17.3333333 11,17.3333333 C11.5522667,17.3333333 12,16.8856 12,16.3333333 L12,10.3333333 C12,9.78106667 11.5522667,9.33333333 11,9.33333333 Z M10.9998667,4.66666667 C10.2648,4.66666667 9.6668,5.26506667 9.6668,6.0006 C9.6668,6.73546667 10.2648,7.33333333 10.9998667,7.33333333 C11.7349333,7.33333333 12.3329333,6.73546667 12.3329333,6.0006 C12.3329333,5.26506667 11.7349333,4.66666667 10.9998667,4.66666667 Z M11,7.63833441e-14 C4.9346,7.63833441e-14 0,4.93466667 0,11.0000667 C0,17.0654667 4.9346,22 11,22 C17.0654,22 22,17.0654667 22,11.0000667 C22,4.93466667 17.0654,7.63833441e-14 11,7.63833441e-14 Z M11,21 C5.48592593,21 1,16.5140741 1,11.0000741 C1,5.48607407 5.48592593,1 11,1 C16.5140741,1 21,5.48607407 21,11.0000741 C21,16.5140741 16.514,21 11,21 Z" id="info" fill="#A6A6A6" fill-rule="nonzero"></path>
    </g>
</svg>