<?xml version="1.0" encoding="UTF-8"?>
<svg width="17px" height="22px" viewBox="0 0 17 22" version="1.1" xmlns="http://www.w3.org/2000/svg" xmlns:xlink="http://www.w3.org/1999/xlink">
    <!-- Generator: Sketch 59.1 (86144) - https://sketch.com -->
    <title>icon/location/pressed</title>
    <desc>Created with Sketch.</desc>
    <g id="icon/location/pressed" stroke="none" stroke-width="1" fill="none" fill-rule="evenodd">
        <path d="M8.06285094,0 C3.61692809,0 0,3.61692809 0,8.06285094 C0,10.1052093 1.2868805,12.9908295 3.82505797,16.6396484 C5.68026731,19.3069 7.50492858,21.3709106 7.58180238,21.4575195 L8.06285094,22 L8.54406738,21.4575195 C8.6207733,21.3709106 10.4454346,19.3069 12.3008118,16.6396484 C14.8388214,12.9908295 16.1258698,10.1052093 16.1258698,8.06285094 C16.1258698,3.61692809 12.5087738,0 8.06285094,0 Z M8.06285094,1.28620912 C11.7996216,1.28620912 14.8394928,4.32624818 14.8394928,8.06285094 C14.8394928,9.81063841 13.598938,12.5188446 11.2519379,15.8947449 C9.99795534,17.698761 8.73054505,19.2513428 8.06285094,20.0434113 C7.39683532,19.2535248 6.13412473,17.7068176 4.88098145,15.9051514 C2.52928161,12.5243835 1.28620912,9.81248473 1.28620912,8.06285094 C1.28620912,4.32624818 4.32624818,1.28620912 8.06285094,1.28620912 Z M8.06285094,2.97994993 C5.43890381,2.97994993 3.30422976,5.11462402 3.30422976,7.73857116 C3.30422976,10.3625183 5.43890381,12.4973602 8.06285094,12.4973602 C10.686966,12.4973602 12.82164,10.3625183 12.82164,7.73857116 C12.82164,5.11462402 10.686966,2.97994993 8.06285094,2.97994993 Z M8.06285094,11.2111511 C6.1482239,11.2111511 4.59043883,9.65336608 4.59043883,7.73857116 C4.59043883,5.82394407 6.1482239,4.26615905 8.06285094,4.26615905 C9.97764586,4.26615905 11.5354309,5.82394407 11.5354309,7.73857116 C11.5354309,9.65336608 9.97764586,11.2111511 8.06285094,11.2111511 Z" id="location" fill="#B988FF" fill-rule="nonzero"></path>
    </g>
</svg>