<?xml version="1.0" encoding="UTF-8"?>
<svg width="24px" height="24px" viewBox="0 0 24 24" version="1.1" xmlns="http://www.w3.org/2000/svg" xmlns:xlink="http://www.w3.org/1999/xlink">
    <!-- Generator: Sketch 59.1 (86144) - https://sketch.com -->
    <title>icon/cancel/default</title>
    <desc>Created with Sketch.</desc>
    <g id="icon/cancel/default" stroke="none" stroke-width="1" fill="none" fill-rule="evenodd">
        <g id="cancel" fill="#A6A6A6" fill-rule="nonzero">
            <path d="M11.9798319,0 C15.1815126,0 18.1865546,1.24537815 20.4504202,3.5092437 C22.7142857,5.77310924 23.9596639,8.77815126 23.9596639,11.9798319 C23.9596639,15.1815126 22.7142857,18.1865546 20.4504202,20.4504202 C18.1865546,22.7142857 15.1815126,23.9596639 11.9798319,23.9596639 C8.77815126,23.9596639 5.77310924,22.7142857 3.5092437,20.4504202 C1.24537815,18.1865546 0,15.1815126 0,11.9798319 C0,8.77815126 1.24537815,5.77310924 3.5092437,3.5092437 C5.77310924,1.24537815 8.77815126,0 11.9798319,0 Z M11.9798319,1.36134454 C9.14621849,1.36134454 6.4789916,2.46554622 4.47226891,4.47226891 C0.332773109,8.61176471 0.332773109,15.3478992 4.47226891,19.487395 C6.4789916,21.4941176 9.14621849,22.5983193 11.9798319,22.5983193 C14.8134454,22.5983193 17.4806723,21.4941176 19.487395,19.487395 C23.6268908,15.3478992 23.6268908,8.61176471 19.487395,4.47226891 C17.4806723,2.46554622 14.8134454,1.36134454 11.9798319,1.36134454 Z M16.2957983,6.70084034 C16.5630252,6.43361345 16.9915966,6.43361345 17.2588235,6.70084034 C17.5260504,6.96806723 17.5260504,7.39663866 17.2588235,7.66386555 L17.2588235,7.66386555 L12.9428571,11.9798319 L17.2487395,16.2957983 C17.5159664,16.5630252 17.5159664,16.9915966 17.2487395,17.2588235 C17.1176471,17.394958 16.9462185,17.4605042 16.7697479,17.4605042 C16.5983193,17.4605042 16.4218487,17.389916 16.2907563,17.2588235 L16.2907563,17.2588235 L11.9747899,12.9428571 L7.65882353,17.2588235 C7.52773109,17.394958 7.3512605,17.4605042 7.17983193,17.4605042 C7.00840336,17.4605042 6.83193277,17.389916 6.70084034,17.2588235 C6.43361345,16.9915966 6.43361345,16.5630252 6.70084034,16.2957983 L6.70084034,16.2957983 L11.0168067,11.9798319 L6.70084034,7.66386555 C6.43361345,7.39663866 6.43361345,6.96806723 6.70084034,6.70084034 C6.96806723,6.43361345 7.39663866,6.43361345 7.66386555,6.70084034 L7.66386555,6.70084034 L11.9798319,11.0168067 Z" id="Combined-Shape"></path>
        </g>
    </g>
</svg>