<?xml version="1.0" encoding="UTF-8"?>
<svg width="31px" height="29px" viewBox="0 0 31 29" version="1.1" xmlns="http://www.w3.org/2000/svg" xmlns:xlink="http://www.w3.org/1999/xlink">
    <!-- Generator: Sketch 59.1 (86144) - https://sketch.com -->
    <title>icon/tech-vip/default</title>
    <desc>Created with Sketch.</desc>
    <g id="icon/tech-vip/default" stroke="none" stroke-width="1" fill="none" fill-rule="evenodd">
        <g id="users" fill="#A6A6A6" fill-rule="nonzero" stroke="#A6A6A6" stroke-width="0.5">
            <path d="M28.4239,21.9878863 L23.4881833,19.5970435 C23.0226667,19.371275 22.7333333,18.9177357 22.7333333,18.4131357 L22.7333333,16.7206232 C22.85165,16.5804565 22.9761667,16.4207667 23.1048167,16.2445571 C23.7449667,15.3685155 24.2580167,14.393356 24.63105,13.3416054 C25.3600667,13.0177202 25.8333333,12.3193899 25.8333333,11.5309524 L25.8333333,9.52857143 C25.8333333,9.04649821 25.6473333,8.57944286 25.3166667,8.21450893 L25.3166667,5.55184286 C25.3456,5.27651548 25.4592667,3.63756667 24.2358,2.28545893 C23.1745667,1.11256429 21.4525167,0.517857143 19.1166667,0.517857143 C16.7808167,0.517857143 15.0587667,1.11256429 13.9975333,2.28495833 C13.2561167,3.10443274 13.0065667,4.02753036 12.9311333,4.69031845 C12.0455667,4.24679107 11.0019,4.02202381 9.81666667,4.02202381 C4.44901667,4.02202381 4.13643333,8.45479464 4.13333333,8.52738095 L4.13333333,10.8196065 C3.79853333,11.1730268 3.61666667,11.5810119 3.61666667,11.9859935 L3.61666667,13.7150494 C3.61666667,14.2551917 3.86621667,14.7587905 4.29401667,15.0991952 C4.72026667,16.6560464 5.76858333,17.8324452 6.17675,18.2454363 L6.17675,19.618569 C6.17675,20.0125375 5.95561667,20.3739673 5.57173333,20.5772089 L2.13435,22.6661929 C0.817883333,23.3620202 0,24.6971077 0,26.1498351 L0,28.0505952 L7.23333333,28.0505952 L8.26666667,28.0505952 L31,28.0505952 L31,26.0266887 C31,24.3056423 30.01265,22.7578018 28.4239,21.9878863 Z M7.23333333,25.9290726 L7.23333333,27.0494048 L1.03333333,27.0494048 L1.03333333,26.1498351 C1.03333333,25.0635435 1.64506667,24.0653565 2.65618333,23.5302202 L6.09305,21.4412363 C6.78176667,21.0773036 7.20956667,20.3794738 7.20956667,19.618569 L7.20956667,17.8209315 L7.04526667,17.6722548 C7.03183333,17.6602405 5.65905,16.4037464 5.25346667,14.6912101 L5.20645,14.4929744 L5.02975,14.3828435 C4.79208333,14.2336661 4.65,13.983869 4.65,13.7150494 L4.65,11.9859935 C4.65,11.8057792 4.77658333,11.5915244 4.99668333,11.3982946 L5.16666667,11.2496179 L5.16563333,8.55641548 C5.17493333,8.41274464 5.44411667,5.02321429 9.81666667,5.02321429 C11.05305,5.02321429 12.0941333,5.30004345 12.9166667,5.84619286 L12.9166667,8.21450893 C12.586,8.57944286 12.4,9.04649821 12.4,9.52857143 L12.4,11.5309524 C12.4,11.6831333 12.4180833,11.8328113 12.4521833,11.9779839 C12.4661333,12.036053 12.4940333,12.0891161 12.51315,12.1451827 C12.5415667,12.2292827 12.5643,12.3158857 12.6040833,12.3954804 C12.6046,12.3964815 12.6051167,12.3969821 12.6056333,12.3979833 C12.7379,12.6622976 12.9306167,12.8985786 13.17345,13.087303 C13.1760333,13.0968143 13.1791333,13.1053244 13.1817167,13.1143351 C13.2127167,13.2289714 13.2452667,13.3431071 13.2804,13.4547399 L13.32225,13.5853952 C13.3294833,13.6084226 13.3382667,13.6319506 13.3460167,13.654978 C13.3641,13.7090423 13.3816667,13.762606 13.4002667,13.815669 C13.4312667,13.9032732 13.4638167,13.993881 13.5015333,14.0924982 C13.51755,14.133547 13.5351167,14.1705911 13.55165,14.2111393 C13.5940167,14.3157637 13.6363833,14.4168839 13.6808167,14.517003 C13.6916667,14.5410315 13.7009667,14.5670625 13.7118167,14.5905905 L13.74075,14.6536655 C13.7541833,14.6827 13.7681333,14.708731 13.7815667,14.7372649 C13.8322,14.8443923 13.8818,14.9480155 13.9334667,15.0481345 C13.9417333,15.0641536 13.9494833,15.0816744 13.95775,15.0976935 C13.9903,15.1602679 14.02285,15.2193381 14.0554,15.2794095 C14.1112,15.3825321 14.1659667,15.4796476 14.2207333,15.5737595 C14.2476,15.6198143 14.27395,15.6648679 14.3003,15.7084196 C14.3747,15.8315661 14.4454833,15.9447006 14.5142,16.0498256 C14.5291833,16.0723524 14.54365,16.0958804 14.5581167,16.117406 C14.68315,16.3051292 14.79165,16.4573101 14.88155,16.5759512 C14.9053167,16.6074887 14.9259833,16.6345208 14.9461333,16.6610524 C14.9575,16.6755696 14.973,16.6965946 14.9828167,16.7096101 L14.9828167,18.3660798 C14.9828167,18.850656 14.7100167,19.2951845 14.2713667,19.5274607 L12.9042667,20.2498196 L12.6660833,20.2292952 L12.56895,20.4270304 L9.66218333,21.9633571 C8.16385,22.7563 7.23333333,24.275106 7.23333333,25.9290726 Z M29.9666667,27.0494048 L8.26666667,27.0494048 L8.26666667,25.9290726 C8.26666667,24.6420423 8.99103333,23.4591357 10.15715,22.8434036 L14.7663333,20.4075071 C15.5377167,19.999522 16.0166667,19.2170917 16.0166667,18.3665804 L16.0166667,16.3551887 L16.0166667,16.3546881 L15.9164333,16.23855 L15.8968,16.2160232 C15.8957667,16.2145214 15.8637333,16.1769768 15.81155,16.1108982 C15.80845,16.1068935 15.80535,16.1028887 15.8017333,16.0988839 C15.77435,16.0643429 15.7423167,16.0227935 15.7056333,15.9732345 C15.7051167,15.9722333 15.7046,15.9717327 15.7040833,15.9707315 C15.6271,15.8671083 15.5304833,15.7324482 15.4230167,15.5702554 C15.4204333,15.5667512 15.4183667,15.5627464 15.4157833,15.5592423 C15.36515,15.4826512 15.3114167,15.3990518 15.25665,15.3104464 C15.2525167,15.3039387 15.2483833,15.297431 15.24425,15.2904226 C15.1274833,15.100697 15.0034833,14.8859417 14.88,14.6481589 C14.88,14.6481589 14.8794833,14.6476583 14.8794833,14.6471577 C14.8138667,14.519506 14.74825,14.3853464 14.6841833,14.2456804 L14.6841833,14.2456804 C14.6754,14.2261571 14.6661,14.2071345 14.6573167,14.1876113 L14.6573167,14.1876113 C14.6289,14.1250369 14.6004833,14.0594589 14.57155,13.9918786 C14.5612167,13.9673494 14.5508833,13.941819 14.54055,13.9167893 C14.5136833,13.8512113 14.4863,13.7851327 14.4573667,13.7095429 C14.4046667,13.573381 14.3550667,13.4312119 14.3075333,13.2845375 L14.2791167,13.1954315 C14.2760167,13.1854196 14.2724,13.1754077 14.2693,13.1648952 C14.2207333,13.0067071 14.1742333,12.8450149 14.1349667,12.6788173 L14.08795,12.4805815 L13.9117667,12.3704506 C13.6121,12.183228 13.4333333,11.8693548 13.4333333,11.5309524 L13.4333333,9.52857143 C13.4333333,9.2477375 13.5563,8.98592619 13.7795,8.79019345 L13.95,8.64151667 L13.95,5.52380952 L13.95,5.34659881 L13.93605,5.33608631 C13.9184833,4.97465655 13.9407,3.86683929 14.7746,2.94524345 C15.6307167,1.99861786 17.09185,1.51904762 19.1166667,1.51904762 C21.13425,1.51904762 22.5922833,1.99511369 23.4494333,2.93473095 C24.4553833,4.03654107 24.2890167,5.44621726 24.2879833,5.45823155 L24.2833333,8.64151667 L24.4538333,8.79069405 C24.6770333,8.98592619 24.8,9.2477375 24.8,9.52857143 L24.8,11.5309524 C24.8,11.967972 24.5044667,12.3504268 24.0653,12.4815827 L23.808,12.5581738 L23.7253333,12.8059685 C23.3796833,13.8477071 22.8873,14.8098512 22.2611,15.665869 C22.10765,15.8766196 21.9583333,16.0633417 21.82865,16.2060113 L21.7,16.3481804 L21.7,18.4131357 C21.7,19.2991893 22.2078833,20.0956363 23.0257667,20.4921077 L27.9614833,22.8829506 C29.1983833,23.4821631 29.9666667,24.6865952 29.9666667,26.0266887 L29.9666667,27.0494048 Z" id="Shape"></path>
        </g>
    </g>
</svg>