<?xml version="1.0" encoding="UTF-8"?>
<svg width="29px" height="29px" viewBox="0 0 29 29" version="1.1" xmlns="http://www.w3.org/2000/svg" xmlns:xlink="http://www.w3.org/1999/xlink">
    <!-- Generator: Sketch 59.1 (86144) - https://sketch.com -->
    <title>icon/settings/default</title>
    <desc>Created with Sketch.</desc>
    <g id="icon/settings/default" stroke="none" stroke-width="1" fill="none" fill-rule="evenodd">
        <g id="settings" fill="#A6A6A6" fill-rule="nonzero">
            <path d="M27.4985386,11.4487035 L25.4643006,11.1036096 C25.2524008,10.419476 24.9799582,9.7595595 24.6469729,9.12991441 L25.8457203,7.45287891 C26.3542797,6.7384739 26.2755741,5.76373486 25.6519833,5.14619833 L23.8478079,3.34202296 C23.5087683,3.0029833 23.0607516,2.81530063 22.5824635,2.81530063 C22.2070981,2.81530063 21.8498956,2.93033194 21.5471816,3.14828601 L19.8640919,4.3470334 C19.2102296,4.00193946 18.526096,3.71738831 17.8177453,3.50548852 L17.4787056,1.49546764 C17.3334029,0.629705637 16.5887265,6.05427975e-05 15.7108559,6.05427975e-05 L13.1620042,6.05427975e-05 C12.2841336,6.05427975e-05 11.5394572,0.629705637 11.3941545,1.49546764 L11.0430063,3.55392276 C10.3649269,3.76582255 9.70501044,4.04431942 9.07536534,4.38335908 L7.41043841,3.18461169 C7.10772443,2.96665762 6.74446764,2.8516263 6.3691023,2.8516263 C5.8908142,2.8516263 5.43674322,3.03930898 5.10375783,3.37834864 L3.29352818,5.18252401 C2.67599165,5.80006054 2.59123173,6.77479958 3.09979123,7.48920459 L4.31064718,9.1904572 C3.9776618,9.82615658 3.71127349,10.4860731 3.50542797,11.1702067 L1.4954071,11.5092463 C0.629645094,11.6545491 -2.84217094e-14,12.3992255 -2.84217094e-14,13.277096 L-2.84217094e-14,15.8259478 C-2.84217094e-14,16.7038184 0.629645094,17.4484948 1.4954071,17.5937975 L3.55386221,17.9449457 C3.765762,18.6230251 4.04425887,19.2829415 4.38329854,19.9125866 L3.19060543,21.5714593 C2.68204593,22.2858643 2.76075157,23.2606033 3.38434238,23.8781399 L5.18851775,25.6823152 C5.52755741,26.0213549 5.97557411,26.2090376 6.45386221,26.2090376 C6.82922756,26.2090376 7.18643006,26.0940063 7.48914405,25.8760522 L9.19039666,24.6651962 C9.80187891,24.9860731 10.4436326,25.2464071 11.1035491,25.4522526 L11.4425887,27.4864906 C11.5878914,28.3522526 12.3325678,28.9818977 13.2104384,28.9818977 L15.7653445,28.9818977 C16.643215,28.9818977 17.3878914,28.3522526 17.5331942,27.4864906 L17.8782881,25.4522526 C18.5624217,25.2403528 19.2223382,24.9679102 19.8519833,24.6349248 L21.5290188,25.8336722 C21.8317328,26.0516263 22.1949896,26.1666576 22.5703549,26.1666576 L22.5703549,26.1666576 C23.048643,26.1666576 23.4966597,25.9789749 23.8356994,25.6399353 L25.6398747,23.8357599 C26.2574113,23.2182234 26.3421712,22.2434843 25.8336117,21.5290793 L24.6348643,19.8459896 C24.9678497,19.2102902 25.2463466,18.5503737 25.4521921,17.8722944 L27.4864301,17.5332547 C28.3521921,17.387952 28.9820089,16.6432756 28.9820089,15.765405 L28.9820089,13.2165532 C28.9939457,12.3386827 28.3643006,11.5940063 27.4985386,11.4487035 Z M27.3592902,15.765405 C27.3592902,15.8441106 27.3048017,15.9107077 27.226096,15.9228163 L24.6832985,16.3466159 C24.3624217,16.4011044 24.108142,16.6372213 24.0294363,16.9459896 C23.7993737,17.8359687 23.4482255,18.6896221 22.9759916,19.4827328 C22.8125261,19.7612296 22.8246347,20.1063236 23.0123173,20.3727119 L24.5077244,22.4796013 C24.5501044,22.5401441 24.5440501,22.6309582 24.4895616,22.6854468 L22.6853862,24.4896221 C22.6430063,24.5320021 22.6006263,24.5380564 22.5703549,24.5380564 C22.5340292,24.5380564 22.5037578,24.5259478 22.4795407,24.507785 L20.3787056,23.0123779 C20.1183716,22.8246952 19.7672234,22.8125866 19.4887265,22.9760522 C18.6956159,23.448286 17.8419624,23.7994342 16.9519833,24.0294969 C16.6371608,24.1082025 16.4010438,24.3685365 16.3526096,24.6833591 L15.9227557,27.2261566 C15.9106472,27.3048622 15.8440501,27.3593507 15.7653445,27.3593507 L13.2164927,27.3593507 C13.1377871,27.3593507 13.07119,27.3048622 13.0590814,27.2261566 L12.6352818,24.6833591 C12.5807933,24.3624823 12.3446764,24.1082025 12.0359081,24.0294969 C11.1701461,23.8054885 10.3346555,23.4603946 9.55365344,23.0123779 C9.42651357,22.9397265 9.28121086,22.9034008 9.14196242,22.9034008 C8.97849687,22.9034008 8.80897704,22.9518351 8.6697286,23.0547578 L6.55073069,24.5622735 C6.52045929,24.5804363 6.49018789,24.5925449 6.45991649,24.5925449 C6.43569937,24.5925449 6.38726514,24.5864906 6.34488518,24.5441106 L4.54070981,22.7399353 C4.48622129,22.6854468 4.48016701,22.6006868 4.52254697,22.5340898 L6.01189979,20.4453633 C6.19958246,20.1789749 6.21169102,19.8278267 6.04822547,19.5493299 C5.57599165,18.7622735 5.21273486,17.90862 4.98267223,17.0186409 C4.89791232,16.7098727 4.64363257,16.4737557 4.32881002,16.4192672 L1.76784969,15.9833591 C1.68914405,15.9712505 1.63465553,15.9046534 1.63465553,15.8259478 L1.63465553,13.277096 C1.63465553,13.1983904 1.68914405,13.1317933 1.76784969,13.1196848 L4.29248434,12.6958852 C4.61336117,12.6413967 4.8736952,12.4052797 4.95240084,12.0904572 C5.17640919,11.2004781 5.52150313,10.3407704 5.98768267,9.54765971 C6.15114823,9.26916284 6.13298539,8.92406889 5.94530271,8.66373486 L4.43778706,6.54473695 C4.3954071,6.48419415 4.40146138,6.39337996 4.4559499,6.33889144 L6.26012526,4.53471608 C6.30250522,4.49233612 6.34488518,4.48628184 6.37515658,4.48628184 C6.41148225,4.48628184 6.44175365,4.4983904 6.46597077,4.51655324 L8.55469729,6.00590605 C8.82108559,6.19358873 9.17223382,6.20569729 9.45073069,6.04223173 C10.2377871,5.56999791 11.0914405,5.20674113 11.9814196,4.9766785 C12.2901879,4.89191858 12.5263048,4.63763883 12.5807933,4.32281628 L13.0167015,1.76185595 C13.02881,1.68315031 13.0954071,1.6286618 13.1741127,1.6286618 L15.7229645,1.6286618 C15.8016701,1.6286618 15.8682672,1.68315031 15.8803758,1.76185595 L16.3041754,4.28649061 C16.3586639,4.60736743 16.5947808,4.86770146 16.9096033,4.9464071 C17.8237996,5.17646973 18.6956159,5.53367223 19.5068894,6.01196033 C19.7853862,6.17542589 20.1304802,6.16331733 20.3968685,5.97563466 L22.485595,4.47417328 C22.5158664,4.45601044 22.5461378,4.44390188 22.5764092,4.44390188 C22.6006263,4.44390188 22.6490605,4.44995616 22.6914405,4.49233612 L24.4956159,6.29651148 C24.5501044,6.351 24.5561587,6.43575992 24.5137787,6.50235699 L23.0183716,8.60319207 C22.8306889,8.8635261 22.8185804,9.21467432 22.9820459,9.49317119 C23.4542797,10.2862818 23.805428,11.1399353 24.0354906,12.0299144 C24.1141962,12.344737 24.3745303,12.5808539 24.6893528,12.6292881 L27.2321503,13.059142 C27.3108559,13.0712505 27.3653445,13.1378476 27.3653445,13.2165532 L27.3653445,15.765405 L27.3592902,15.765405 L27.3592902,15.765405 Z" id="Shape"></path>
            <path d="M14.4939457,8.233881 C11.0430063,8.233881 8.23987474,11.0370125 8.23987474,14.487952 C8.23987474,17.9388914 11.0430063,20.742023 14.4939457,20.742023 C17.9448852,20.742023 20.7480167,17.9388914 20.7480167,14.487952 C20.7480167,11.0370125 17.9448852,8.233881 14.4939457,8.233881 Z M14.4939457,19.1073674 C11.9450939,19.1073674 9.87453027,17.0368038 9.87453027,14.487952 C9.87453027,11.9391002 11.9450939,9.86853653 14.4939457,9.86853653 C17.0427975,9.86853653 19.1133612,11.9391002 19.1133612,14.487952 C19.1133612,17.0368038 17.0427975,19.1073674 14.4939457,19.1073674 Z" id="Shape"></path>
        </g>
    </g>
</svg>