<?xml version="1.0" encoding="UTF-8"?>
<svg width="22px" height="22px" viewBox="0 0 22 22" version="1.1" xmlns="http://www.w3.org/2000/svg" xmlns:xlink="http://www.w3.org/1999/xlink">
    <!-- Generator: Sketch 59.1 (86144) - https://sketch.com -->
    <title>icon/time/default</title>
    <desc>Created with Sketch.</desc>
    <g id="icon/time/default" stroke="none" stroke-width="1" fill="none" fill-rule="evenodd">
        <g id="time" fill="#A6A6A6" fill-rule="nonzero">
            <path d="M8.76599493,0.189300404 C11.4672412,-0.279110151 14.1887584,0.301698939 16.457818,1.82487407 L16.457818,1.82487407 L17.1234373,0.863100761 C17.3082381,0.596080383 17.5302627,0.633531411 17.6169819,0.946411118 L17.6169819,0.946411118 L18.3915909,3.73733083 C18.4786282,4.04984693 18.2851009,4.32977519 17.961495,4.35886337 L17.961495,4.35886337 L15.0769022,4.61711184 C14.7537053,4.64620002 14.6401251,4.45158193 14.8247441,4.1845161 L14.8247441,4.1845161 L15.4888181,3.22501531 C12.3968812,1.16329984 8.44302526,1.29851441 5.53116236,3.30487144 C5.5210724,3.31200714 5.51089154,3.31905193 5.50071068,3.32614217 C4.67437919,3.90081548 3.93317607,4.62588374 3.32068814,5.49498394 C0.503952672,9.49329026 1.46531693,15.0376787 5.4636687,17.8542323 C5.73787022,18.0472596 6.02011644,18.2234704 6.30931656,18.3827281 C6.31018011,18.3830917 6.31118002,18.3835008 6.31172542,18.3841371 C6.46934698,18.4699472 6.63196807,18.5520759 6.79486186,18.6287505 C6.80345197,18.6326592 6.81076946,18.6375224 6.81895051,18.6417947 C7.51020378,18.9658552 8.23918077,19.198197 8.9991094,19.3346387 C9.46106602,19.4174037 9.76840079,19.8591804 9.68554493,20.3213643 C9.60264363,20.78323 9.16123054,21.0908374 8.69913757,21.0077998 C7.17618969,20.7345073 5.7580956,20.1413357 4.48457883,19.2439654 C3.99794272,18.9012249 3.54598516,18.5221696 3.13047873,18.1123444 L3.13047873,18.1123444 C3.12293398,18.1051633 3.11920706,18.1012546 3.11561649,18.097664 C1.56907991,16.5657624 0.536995023,14.5969928 0.157757912,12.4091073 C0.120443234,12.1946729 0.0906733027,11.9801931 0.0669482581,11.7662132 L0.0669482581,11.7662132 L0.0603579679,11.7257624 C0.037405578,11.5129642 0.0204980749,11.2968027 0.0109080665,11.0835955 L0.0109080665,11.0835955 L0.0109080665,11.0618248 C-0.0880826369,8.87921157 0.489135881,6.735322 1.68584168,4.88090525 C1.69375002,4.86731562 1.70065847,4.85363508 1.70970307,4.8401818 C1.78196901,4.72855592 1.85750737,4.61693004 1.93413654,4.50803118 C1.98099577,4.44158287 2.02885492,4.37513457 2.07707766,4.31018612 C2.08862203,4.29441487 2.10121176,4.28023439 2.11343788,4.26573575 C3.56361987,2.32737234 5.59592901,0.968818105 7.9252557,0.370647009 C7.93520932,0.367874542 7.94557198,0.364556672 7.95579829,0.362056907 C7.9574345,0.361693305 7.95907071,0.361466053 7.96111597,0.361102451 C8.22568204,0.294017842 8.49392957,0.236386891 8.76599493,0.189300404 Z M12.7074884,19.2124684 C13.1632183,19.0990245 13.6242205,19.3762712 13.7375735,19.8319102 C13.8511992,20.2871402 13.5737252,20.7485514 13.118268,20.8619044 C12.9104693,20.9137632 12.6987165,20.9596225 12.4885999,20.9986188 C12.2545309,21.0421602 12.0248252,20.984802 11.8443422,20.8577684 C11.6692223,20.73428 11.5402344,20.545116 11.498102,20.3180009 C11.4127918,19.8563625 11.7177177,19.4127678 12.1789471,19.3270031 C12.3553851,19.2945062 12.5331411,19.2559189 12.7074884,19.2124684 Z M15.4694563,17.9989006 C15.8611013,17.7400612 16.3882336,17.8476875 16.6469821,18.2395143 C16.9057759,18.6312048 16.7980133,19.1585644 16.4065046,19.4172219 C16.2279305,19.5353017 16.0436296,19.6490183 15.8582834,19.7559174 C15.5618112,19.9267195 15.2057083,19.8990857 14.9435057,19.7146031 C14.845833,19.6455186 14.7610228,19.555118 14.697347,19.4445375 C14.4628236,19.0379848 14.6021287,18.5180791 15.0088632,18.2834647 C15.1647576,18.1937004 15.3195158,18.0978913 15.4694563,17.9989006 Z M17.6642047,15.9327764 C17.945951,15.5572662 18.4781737,15.4806371 18.8543657,15.7628833 C19.2295123,16.0447204 19.3057778,16.5773068 19.0239861,16.952817 C18.8950437,17.1245736 18.7596018,17.2942395 18.6206603,17.457406 C18.3335055,17.7943743 17.8399155,17.8519144 17.484767,17.6015288 C17.4634054,17.5866211 17.4428164,17.5707589 17.4224547,17.5534878 C17.0652155,17.2491982 17.022265,16.7126123 17.3263274,16.3553731 C17.4426801,16.2186132 17.5563058,16.0765811 17.6642047,15.9327764 Z M19.0385302,13.2471195 C19.1788806,12.7992071 19.6558813,12.5498668 20.1037938,12.6903082 C20.5516154,12.8307496 20.8007738,13.3076139 20.6605597,13.7556172 C20.5965202,13.9590527 20.5257087,14.1636244 20.4493977,14.3638328 C20.2822316,14.8025644 19.7911413,15.0225892 19.3525916,14.8552412 C19.2845525,14.8295164 19.2219221,14.7956559 19.1650638,14.7557051 C18.8550929,14.5371348 18.7198783,14.129264 18.8610014,13.7585715 C18.9252681,13.5901782 18.984808,13.4182398 19.0385302,13.2471195 Z M9.55131136,5 C9.85553967,5 10.1019671,5.24693738 10.1020036,5.55109284 L10.1020036,5.55109284 L10.1020036,10.3704144 L14.5274637,12.6583366 C14.7979293,12.7980128 14.9036243,13.1302856 14.7639481,13.4007512 C14.6660109,13.590252 14.4733779,13.6988607 14.273934,13.6988607 C14.1887807,13.6988607 14.1022434,13.6791567 14.0214242,13.6373085 L14.0214242,13.6373085 L9,11.0415159 L9,5.55109284 C9,5.24693738 9.24671885,5 9.55131136,5 Z M20.2524616,9.37757386 C20.7217357,9.3592574 21.1168805,9.72440492 21.1353787,10.1935427 C21.1438325,10.4074317 21.145605,10.624275 21.1409237,10.8383003 C21.1305155,11.3076653 20.7417339,11.6797667 20.2725961,11.6693586 C20.0972944,11.665359 19.9356278,11.6085916 19.802413,11.5147822 C19.5787976,11.3571607 19.4349021,11.0949126 19.4414923,10.8007129 C19.4456283,10.6215934 19.4438103,10.4396105 19.4367655,10.2603091 C19.4183582,9.79135318 19.7837784,9.39607212 20.2524616,9.37757386 Z M19.2809165,6.20632623 C19.7170119,6.03197897 20.21142,6.24418631 20.3857673,6.68005447 C20.4651689,6.87839947 20.5397074,7.08210762 20.6068829,7.28517945 C20.7543236,7.73063762 20.5128463,8.21122885 20.0671609,8.35921495 C19.8013222,8.44711579 19.5227574,8.39666598 19.3098683,8.24672551 C19.1662909,8.14550775 19.0526198,7.9990215 18.9930799,7.81958381 C18.9366761,7.64896347 18.874182,7.47784318 18.807461,7.31113156 C18.6329774,6.87512705 18.8452756,6.38058259 19.2809165,6.20632623 Z" id="Combined-Shape"></path>
        </g>
    </g>
</svg>