<?xml version="1.0" encoding="UTF-8"?>
<svg width="102px" height="102px" viewBox="0 0 102 102" version="1.1" xmlns="http://www.w3.org/2000/svg" xmlns:xlink="http://www.w3.org/1999/xlink">
    <!-- Generator: Sketch 59.1 (86144) - https://sketch.com -->
    <title>button/icon/soundcheck/pressed</title>
    <desc>Created with Sketch.</desc>
    <defs>
        <linearGradient x1="50%" y1="72.6290789%" x2="50%" y2="-6.43119471%" id="linearGradient-1">
            <stop stop-color="#C1C1C1" offset="0%"></stop>
            <stop stop-color="#FFFFFF" offset="100%"></stop>
        </linearGradient>
    </defs>
    <g id="button/icon/soundcheck/pressed" stroke="none" stroke-width="1" fill="none" fill-rule="evenodd">
        <g id="Soundcheck" fill="url(#linearGradient-1)" fill-rule="nonzero">
            <path d="M50.9601077,0 C79.1156909,0 101.920454,22.8045246 101.920454,50.9601077 C101.920454,79.1156909 79.115452,101.920215 50.9601077,101.920215 C22.8047635,101.920215 0,79.115452 0,50.9601077 C0,22.8047635 22.8047635,0 50.9601077,0 Z M50.9601077,10.1921171 C28.4357845,10.1921171 10.1918782,28.4355457 10.1918782,50.9601077 C10.1918782,73.4846698 28.4357845,91.7283372 50.9601077,91.7283372 C73.4846698,91.7283372 91.7283372,73.4844309 91.7283372,50.9601077 C91.7283372,28.4357845 73.4844309,10.1921171 50.9601077,10.1921171 Z M82.5301779,57.4698221 C83.1566074,58.0962517 83.1566074,59.1118946 82.5301779,59.7383241 L69.8402773,72.4282247 L62.4698221,65.0577695 C61.8433926,64.43134 61.8433926,63.4156971 62.4698221,62.7892675 C63.0962517,62.162838 64.1118946,62.162838 64.7383241,62.7892675 L69.8402773,67.8912207 L80.2616759,57.4698221 C80.8881054,56.8433926 81.9037483,56.8433926 82.5301779,57.4698221 Z M38.889325,32 C39.8365323,32 40.6043956,32.7678633 40.6043956,33.7150706 L40.6043956,65.9583987 C40.6043956,66.9056061 39.8365323,67.6734694 38.889325,67.6734694 C37.9421176,67.6734694 37.1742543,66.9056061 37.1742543,65.9583987 L37.1742543,33.7150706 C37.1742543,32.7678633 37.9421176,32 38.889325,32 Z M58.4701727,32 C59.41738,32 60.1852433,32.7678633 60.1852433,33.7150706 L60.1852433,65.9583987 C60.1852433,66.9056061 59.41738,67.6734694 58.4701727,67.6734694 C57.5229653,67.6734694 56.755102,66.9056061 56.755102,65.9583987 L56.755102,33.7150706 C56.755102,32.7678633 57.5229653,32 58.4701727,32 Z M52.2959184,34.0580848 C53.2431257,34.0580848 54.010989,34.8259481 54.010989,35.7731554 L54.010989,63.2142857 C54.010989,64.1614931 53.2431257,64.9293564 52.2959184,64.9293564 C51.348711,64.9293564 50.5808477,64.1614931 50.5808477,63.2142857 L50.5808477,35.7731554 C50.5808477,34.8259481 51.348711,34.0580848 52.2959184,34.0580848 Z M31.7150706,37.4882261 C32.662278,37.4882261 33.4301413,38.2560893 33.4301413,39.2032967 L33.4301413,61.1562009 C33.4301413,62.1034083 32.662278,62.8712716 31.7150706,62.8712716 C30.7678633,62.8712716 30,62.1034083 30,61.1562009 L30,39.2032967 C30,38.2560893 30.7678633,37.4882261 31.7150706,37.4882261 Z M44.7496075,39.5463108 C45.6968149,39.5463108 46.4646782,40.3141741 46.4646782,41.2613815 L46.4646782,60.4701727 C46.4646782,61.41738 45.6968149,62.1852433 44.7496075,62.1852433 C43.8024002,62.1852433 43.0345369,61.41738 43.0345369,60.4701727 L43.0345369,41.2613815 C43.0345369,40.3141741 43.8024002,39.5463108 44.7496075,39.5463108 Z M66.0164835,40.2323391 C66.9636909,40.2323391 67.7315542,41.0002024 67.7315542,41.9474097 L67.7315542,57.7260597 C67.7315542,58.673267 66.9636909,59.4411303 66.0164835,59.4411303 C65.0692762,59.4411303 64.3014129,58.673267 64.3014129,57.7260597 L64.3014129,41.9474097 C64.3014129,41.0002024 65.0692762,40.2323391 66.0164835,40.2323391 Z" id="icons/soundcheck"></path>
        </g>
    </g>
</svg>