<?xml version="1.0" encoding="UTF-8"?>
<svg width="22px" height="20px" viewBox="0 0 22 20" version="1.1" xmlns="http://www.w3.org/2000/svg" xmlns:xlink="http://www.w3.org/1999/xlink">
    <!-- Generator: Sketch 59.1 (86144) - https://sketch.com -->
    <title>icon/venue/default</title>
    <desc>Created with Sketch.</desc>
    <g id="icon/venue/default" stroke="none" stroke-width="1" fill="none" fill-rule="evenodd">
        <path d="M22,6.89855906 C22,6.80279496 21.9775235,6.71159105 21.9280752,6.62950754 L18.6554965,0.792457624 C18.5610952,0.6237304 18.3812832,0.514285714 18.1879853,0.514285714 L3.80751941,0.514285714 C3.6142215,0.514285714 3.43440948,0.619170205 3.34000817,0.792457624 L0.0719248059,6.62950754 C0.0269718022,6.71159105 0,6.80279496 0,6.89855906 C0,8.20733509 0.777686964,9.32914312 1.88802615,9.82620441 L1.88802615,19.4527766 C1.88802615,19.7537495 2.13077237,20 2.4274622,20 L5.40784634,20 C5.41234164,20 5.41683694,20 5.42133224,20 L9.60196159,20 C9.60645689,20 9.61095219,20 9.61544749,20 L19.5680425,20 C19.8647323,20 20.1074785,19.7537495 20.1074785,19.4527766 L20.1074785,9.89460734 C20.1074785,9.87180636 20.1074785,9.85356558 20.1029832,9.8353248 C21.2178177,9.33826352 22,8.21189529 22,6.89855906 Z M4.12219044,1.61329277 L17.8733143,1.61329277 L20.4311402,6.17804821 L1.56885983,6.17804821 L4.12219044,1.61329277 Z M15.6571312,7.26793487 C15.4863098,8.25293705 14.636698,9.00080907 13.6162648,9.00080907 C12.5958316,9.00080907 11.7462199,8.25293705 11.5753984,7.26793487 L15.6571312,7.26793487 Z M10.4290969,7.26793487 C10.2582754,8.25293705 9.40866367,9.00080907 8.38823049,9.00080907 C7.3677973,9.00080907 6.51818553,8.25293705 6.34286882,7.26793487 L10.4290969,7.26793487 Z M1.11483449,7.26793487 L5.20106253,7.26793487 C5.03024111,8.25293705 4.17613404,9.00080907 3.15570086,9.00080907 C2.13526767,9.00536926 1.28565591,8.25293705 1.11483449,7.26793487 Z M9.06252554,18.9055531 L5.96076829,18.9055531 L5.96076829,13.0001003 C5.96076829,12.5714419 6.30241112,12.2203069 6.72946465,12.2203069 L8.29832448,12.2203069 C8.72088271,12.2203069 9.06702084,12.5668817 9.06702084,13.0001003 L9.06702084,18.9055531 L9.06252554,18.9055531 Z M19.0286065,18.9055531 L10.1413976,18.9055531 L10.1413976,13.0001003 C10.1413976,11.9694962 9.31426236,11.1258601 8.29382918,11.1258601 L6.72496935,11.1258601 C5.70903147,11.1258601 4.8774009,11.964936 4.8774009,13.0001003 L4.8774009,18.9101133 L2.96689824,18.9101133 L2.96689824,10.0952559 C3.02983245,10.0998161 3.09276665,10.0998161 3.15570086,10.0998161 C4.24356355,10.0998161 5.20555783,9.53891211 5.77196567,8.68615559 C6.33837352,9.53891211 7.3003678,10.0998161 8.38823049,10.0998161 C9.47609318,10.0998161 10.4335922,9.53891211 11.0044953,8.68615559 C11.5709031,9.53891211 12.5328974,10.0998161 13.6162648,10.0998161 C14.7041275,10.0998161 15.6616265,9.53891211 16.2280343,8.68615559 C16.7944422,9.53891211 17.7564365,10.0998161 18.8442991,10.0998161 C18.9072333,10.0998161 18.9656723,10.0952559 19.0286065,10.0952559 L19.0286065,18.9055531 L19.0286065,18.9055531 Z M18.8442991,9.00536926 C17.823866,9.00536926 16.9742542,8.25749724 16.8034328,7.27249507 L20.8896608,7.27249507 C20.7143441,8.25293705 19.8647323,9.00536926 18.8442991,9.00536926 Z" id="Shape" fill="#A6A6A6" fill-rule="nonzero"></path>
    </g>
</svg>