<?xml version="1.0" encoding="UTF-8"?>
<svg width="102px" height="102px" viewBox="0 0 102 102" version="1.1" xmlns="http://www.w3.org/2000/svg" xmlns:xlink="http://www.w3.org/1999/xlink">
    <!-- Generator: Sketch 59.1 (86144) - https://sketch.com -->
    <title>button/icon/broadcast/default</title>
    <desc>Created with Sketch.</desc>
    <defs>
        <linearGradient x1="50%" y1="0%" x2="50%" y2="100%" id="linearGradient-1">
            <stop stop-color="#F5515F" offset="0%"></stop>
            <stop stop-color="#9F041B" offset="100%"></stop>
        </linearGradient>
        <path d="M50.9601077,0 C79.1156909,0 101.920454,22.8045246 101.920454,50.9601077 C101.920454,79.1156909 79.115452,101.920215 50.9601077,101.920215 C22.8047635,101.920215 0,79.115452 0,50.9601077 C0,22.8047635 22.8047635,0 50.9601077,0 Z M50.9601077,10.1921171 C28.4357845,10.1921171 10.1918782,28.4355457 10.1918782,50.9601077 C10.1918782,73.4846698 28.4357845,91.7283372 50.9601077,91.7283372 C73.4846698,91.7283372 91.7283372,73.4844309 91.7283372,50.9601077 C91.7283372,28.4357845 73.4844309,10.1921171 50.9601077,10.1921171 Z M69.3032129,43.1131975 C69.9292238,43.1131975 70.4721292,43.3420223 70.9282608,43.7995453 C71.3864163,44.2574478 71.615747,44.7987088 71.615747,45.4243402 L71.615747,45.4243402 L71.615747,50.047258 C71.615747,55.3681608 69.8392877,59.9970238 66.2878871,63.9330878 C62.7364864,67.8692783 58.348971,70.1262823 53.1249613,70.7037201 L53.1249613,70.7037201 L53.1249613,75.4713452 L62.369026,75.4713452 C62.9950369,75.4713452 63.5374363,75.7004229 63.9940739,76.1579459 C64.4521029,76.615216 64.6810541,77.1571094 64.6810541,77.7829938 C64.6810541,78.4081192 64.4521029,78.9510246 63.9940739,79.4080417 C63.5373098,79.8653117 62.9949104,80.0946424 62.369026,80.0946424 L62.369026,80.0946424 L39.2564609,80.0946424 C38.63045,80.0946424 38.0888096,79.8651852 37.6314131,79.4080417 C37.17389,78.9508981 36.9450653,78.4079928 36.9450653,77.7829938 C36.9450653,77.1569829 37.17389,76.6150895 37.6314131,76.1579459 C38.0888096,75.7004229 38.63045,75.4713452 39.2564609,75.4713452 L39.2564609,75.4713452 L48.501664,75.4713452 L48.501664,70.7037201 C43.2767689,70.1262823 38.888874,67.8692783 35.3378528,63.9330878 C31.7869582,59.9970238 30.0110048,55.3681608 30.0110048,50.047258 L30.0110048,50.047258 L30.0110048,45.4243402 C30.0110048,44.7985823 30.2397031,44.2569418 30.6973526,43.7995453 C31.1546226,43.3420223 31.6963896,43.1131975 32.32278,43.1131975 C32.9491703,43.1131975 33.4903048,43.3420223 33.9478278,43.7995453 C34.4050979,44.2569418 34.6339226,44.7985823 34.6339226,45.4243402 L34.6339226,45.4243402 L34.6339226,50.047258 C34.6339226,54.5016879 36.216722,58.3122715 39.3825739,61.4773643 C42.5488052,64.6434691 46.3587563,66.2265215 50.8130597,66.2265215 C55.2674896,66.2265215 59.0778202,64.6434691 62.2429131,61.4773643 C65.4090179,58.311386 66.9924498,54.5015614 66.9924498,50.047258 L66.9924498,50.047258 L66.9924498,45.4243402 C66.9924498,44.7985823 67.221148,44.2569418 67.6781651,43.7995453 C68.136194,43.3420223 68.6778345,43.1131975 69.3032129,43.1131975 Z M50.8131862,20 C53.9916872,20 56.7117798,21.1322335 58.9748554,23.395056 C61.2384369,25.6583846 62.369026,28.3787302 62.369026,31.5569782 L62.369026,31.5569782 L62.369026,50.047258 C62.369026,53.225506 61.2375515,55.9469901 58.9748554,58.2091802 C56.7117798,60.4713703 53.9916872,61.6029713 50.8131862,61.6029713 C47.6350646,61.6029713 44.9142131,60.4713703 42.6513905,58.2091802 C40.3885679,55.9469901 39.2565874,53.2253796 39.2565874,50.047258 L39.2565874,50.047258 L39.2565874,31.5569782 C39.2565874,28.3787302 40.388062,25.6580051 42.6513905,23.395056 C44.9145925,21.1322335 47.6350646,20 50.8131862,20 Z" id="path-2"></path>
        <filter x="-15.7%" y="-13.7%" width="131.4%" height="131.4%" filterUnits="objectBoundingBox" id="filter-3">
            <feOffset dx="0" dy="2" in="SourceAlpha" result="shadowOffsetOuter1"></feOffset>
            <feGaussianBlur stdDeviation="5" in="shadowOffsetOuter1" result="shadowBlurOuter1"></feGaussianBlur>
            <feColorMatrix values="0 0 0 0 0   0 0 0 0 0   0 0 0 0 0  0 0 0 0.5 0" type="matrix" in="shadowBlurOuter1"></feColorMatrix>
        </filter>
    </defs>
    <g id="button/icon/broadcast/default" stroke="none" stroke-width="1" fill="none" fill-rule="evenodd">
        <g id="icon-broadcast">
            <g id="Combined-Shape" fill-rule="nonzero">
                <use fill="black" fill-opacity="1" filter="url(#filter-3)" xlink:href="#path-2"></use>
                <use fill="url(#linearGradient-1)" xlink:href="#path-2"></use>
            </g>
            <g id="microphone" transform="translate(30.000000, 20.000000)"></g>
        </g>
    </g>
</svg>