<?xml version="1.0" encoding="UTF-8"?>
<svg width="27px" height="32px" viewBox="0 0 27 32" version="1.1" xmlns="http://www.w3.org/2000/svg" xmlns:xlink="http://www.w3.org/1999/xlink">
    <!-- Generator: Sketch 59.1 (86144) - https://sketch.com -->
    <title>icon/reair-edit/pressed</title>
    <desc>Created with Sketch.</desc>
    <g id="icon/reair-edit/pressed" stroke="none" stroke-width="1" fill="none" fill-rule="evenodd">
        <g id="re-air" fill="#D8D8D8" fill-rule="nonzero">
            <path d="M23.1923458,15.2173546 C23.8923833,15.2173546 24.4602754,15.784652 24.4602754,16.4854626 L24.4602754,16.4854626 L24.4602754,18.7842093 C24.4558744,22.758978 21.234489,25.980304 17.2597203,25.9847643 L17.2597203,25.9847643 L4.74956167,25.9847643 L7.3672533,28.2094692 C7.90344714,28.6603216 7.97386123,29.4604493 7.52300881,29.9966432 C7.07215639,30.532837 6.27196916,30.6032511 5.7358348,30.1523987 L5.7358348,30.1523987 L0.455907489,25.7030485 C0.399528634,25.6555903 0.346896476,25.6029581 0.299438326,25.5465793 C-0.150700441,25.0104449 -0.0802268722,24.2103172 0.455907489,23.7601784 L0.455907489,23.7601784 L5.7358348,19.3107687 C5.83747137,19.1854626 5.96277753,19.0816256 6.1036652,19.0037775 C6.71699339,18.6648502 7.48821806,18.8873326 7.8270859,19.5006013 C8.16601322,20.1139295 7.94353084,20.8851542 7.33026211,21.224022 L7.33026211,21.224022 L4.71257048,23.4487269 L17.2598392,23.4487269 C19.8345925,23.4442665 21.919837,21.3589626 21.9242974,18.7842687 L21.9242974,18.7842687 L21.9242974,16.4854031 C21.9242974,15.7853656 22.4923084,15.2173546 23.1923458,15.2173546 Z M19.4696762,0.452874449 C19.9205286,-0.0833193833 20.7207159,-0.15373348 21.2568502,0.297118943 L21.2568502,0.297118943 L26.5442115,4.75396256 C26.6005903,4.8014207 26.6532225,4.85405286 26.7006806,4.91043172 C27.1508194,5.44656608 27.0803458,6.24669383 26.5442115,6.6968326 L26.5442115,6.6968326 L21.2642841,11.1462423 C20.7281498,11.5970947 19.9279626,11.5266211 19.4771101,10.9904868 C19.0262577,10.4543524 19.0967313,9.6541652 19.6328656,9.20331278 L19.6328656,9.20331278 L22.2505573,6.97860793 L9.70328855,6.97860793 C7.12853524,6.98306828 5.04329075,9.06837225 5.0388304,11.6430661 L5.0388304,11.6430661 L5.0388304,13.9419317 C5.0388304,14.6419692 4.47081938,15.2099802 3.77078194,15.2099802 C3.07074449,15.2099802 2.50273348,14.6419692 2.50273348,13.9419317 L2.50273348,13.9419317 L2.50273348,11.6653084 C2.50719383,7.69048018 5.72851982,4.46915419 9.70328855,4.4647533 L9.70328855,4.4647533 L22.2431233,4.4647533 L19.6254317,2.24004846 C19.0892379,1.78919604 19.0188238,0.989068282 19.4696762,0.452874449 Z" id="Combined-Shape"></path>
        </g>
    </g>
</svg>