<?xml version="1.0" encoding="UTF-8"?>
<svg width="102px" height="102px" viewBox="0 0 102 102" version="1.1" xmlns="http://www.w3.org/2000/svg" xmlns:xlink="http://www.w3.org/1999/xlink">
    <!-- Generator: Sketch 59.1 (86144) - https://sketch.com -->
    <title>button/icon/play/disabledcolor</title>
    <desc>Created with Sketch.</desc>
    <defs>
        <linearGradient x1="0%" y1="0.00118125991%" x2="101.999998%" y2="100.998794%" id="linearGradient-1">
            <stop stop-color="#3023AE" offset="0%"></stop>
            <stop stop-color="#C86DD7" offset="100%"></stop>
        </linearGradient>
    </defs>
    <g id="button/icon/play/disabledcolor" stroke="none" stroke-width="1" fill="none" fill-rule="evenodd">
        <g id="play-button" fill="url(#linearGradient-1)" fill-rule="nonzero">
            <path d="M94.8768381,25.4287619 C80.8377524,1.11228571 49.7429714,-7.21965714 25.4284381,6.82201905 C1.1119619,20.8591619 -7.22030476,51.9526476 6.82137143,76.2681524 C20.8585143,100.584629 51.9523238,108.917867 76.267181,94.8774857 C100.583981,80.8354857 108.920133,49.743619 94.8768381,25.4287619 Z M71.1843429,86.0688952 C51.7340762,97.3024952 26.8567619,90.6365524 15.6264,71.1824 C4.39344762,51.7321333 11.0616571,26.8551429 30.5125714,15.6270476 C49.9641333,4.39409524 74.8401524,11.0593905 86.0711619,30.5128952 C97.3024952,49.9660762 90.6362286,74.8378857 71.1843429,86.0688952 Z M69.1511429,48.7825524 L42.5294667,33.2562095 C40.1034857,31.8398667 38.1467048,32.9722286 38.1602343,35.7783619 L38.2966286,66.5966095 C38.3089333,69.4020952 40.2896762,70.5441714 42.722781,69.1388381 L69.140781,53.8864381 C71.5712952,52.4836952 71.5764762,50.1988952 69.1511429,48.7825524 Z" id="Shape"></path>
        </g>
    </g>
</svg>