<?xml version="1.0" encoding="UTF-8"?>
<svg width="29px" height="21px" viewBox="0 0 29 21" version="1.1" xmlns="http://www.w3.org/2000/svg" xmlns:xlink="http://www.w3.org/1999/xlink">
    <!-- Generator: Sketch 59.1 (86144) - https://sketch.com -->
    <title>icon/menu/default</title>
    <desc>Created with Sketch.</desc>
    <g id="icon/menu/default" stroke="none" stroke-width="1" fill="none" fill-rule="evenodd">
        <g id="menu" fill="#A6A6A6" fill-rule="nonzero">
            <path d="M27.8285586,8.91058984 L1.17144141,8.91058984 C0.524492188,8.91058984 0,9.43502539 0,10.0820312 C0,10.7290371 0.524492188,11.2534727 1.17144141,11.2534727 L27.8285586,11.2534727 C28.4755645,11.2534727 29,10.7290371 29,10.0820312 C29,9.43508203 28.4755645,8.91058984 27.8285586,8.91058984 Z" id="Shape"></path>
            <path d="M27.8285586,0.0248652344 L1.17144141,0.0248652344 C0.524492188,0.0248652344 0,0.549357422 0,1.19630664 C0,1.84325586 0.524492188,2.36774805 1.17144141,2.36774805 L27.8285586,2.36774805 C28.4755645,2.36774805 29,1.84325586 29,1.19630664 C29,0.549357422 28.4755645,0.0248652344 27.8285586,0.0248652344 Z" id="Shape"></path>
            <path d="M27.8285586,17.7963145 L1.17144141,17.7963145 C0.524492188,17.7963145 0,18.32075 0,18.9677559 C0,19.6147617 0.524492188,20.1391973 1.17144141,20.1391973 L27.8285586,20.1391973 C28.4755645,20.1391973 29,19.6147617 29,18.9677559 C29,18.32075 28.4755645,17.7963145 27.8285586,17.7963145 Z" id="Shape"></path>
        </g>
    </g>
</svg>