<?xml version="1.0" encoding="UTF-8"?>
<svg width="22px" height="22px" viewBox="0 0 22 22" version="1.1" xmlns="http://www.w3.org/2000/svg" xmlns:xlink="http://www.w3.org/1999/xlink">
    <!-- Generator: Sketch 59.1 (86144) - https://sketch.com -->
    <title>icon/options/pressed</title>
    <desc>Created with Sketch.</desc>
    <g id="icon/options/pressed" stroke="none" stroke-width="1" fill="none" fill-rule="evenodd">
        <path d="M21.5624922,3.91007444 C21.4818828,3.70670335 21.3043359,3.55755882 21.0901367,3.513301 C20.8756367,3.46895725 20.6537031,3.53547288 20.4990586,3.69016038 L17.1477539,7.04146507 L15.3459883,6.65405882 L14.958625,4.85229319 L18.3099297,1.50094553 C18.4646172,1.34625803 18.5310469,1.1241096 18.4867891,0.909910378 C18.4424883,0.695668191 18.2933437,0.518164285 18.0900156,0.437468972 C15.789168,-0.474929465 13.1717266,0.0660470972 11.4218242,1.81582053 C10.5794648,2.65817991 10.0010195,3.71615647 9.74905078,4.87545335 C9.53351953,5.86725803 9.56376953,6.89201975 9.83460156,7.8636721 L0.890914062,16.8074026 C0.316378906,17.3818948 0,18.1457502 0,18.9582463 C0,19.7707424 0.316378906,20.5345979 0.890957031,21.109133 C1.46544922,21.6836682 2.22930469,22.0000471 3.04180078,22.0000471 C3.85425391,22.0000471 4.61815234,21.6836682 5.19264453,21.109133 L14.136375,12.1654455 C15.1080273,12.4362776 16.1327461,12.4665276 17.1245508,12.2509533 C18.2838477,11.9989846 19.3418672,11.4204963 20.1842266,10.5781799 C21.933957,8.8283635 22.4749336,6.21100803 21.5624922,3.91007444 Z M19.2652109,9.65925022 C17.9398398,10.9846213 15.940418,11.4382424 14.1712656,10.8146799 C13.9353672,10.7315783 13.6727422,10.791219 13.4958398,10.9680783 L4.27367187,20.1902033 C3.94461719,20.519301 3.50706641,20.7005432 3.04171484,20.7005432 C2.57632031,20.7005432 2.13885547,20.519301 1.80975781,20.1902033 C1.48070312,19.8611057 1.29946094,19.4235979 1.29946094,18.9582463 C1.29946094,18.4928948 1.48070312,18.0553869 1.80980078,17.7262893 L11.0319258,8.50416428 C11.2087852,8.32730491 11.2684258,8.06463694 11.1853242,7.8287385 C10.5618047,6.0596721 11.0153398,4.06016428 12.3407109,2.73479319 C13.2774297,1.79807444 14.5286367,1.29972288 15.8038203,1.29972288 C16.0713437,1.29972288 16.3400273,1.32163694 16.6069062,1.3661096 L13.7894453,4.18357053 C13.6334687,4.33950413 13.5672539,4.56392991 13.6136172,4.77959007 L14.1635742,7.33764866 C14.2173281,7.58746897 14.4124492,7.78259007 14.6622266,7.836301 L17.2203281,8.386301 C17.4361172,8.43266428 17.6603711,8.36644944 17.8163906,8.21047288 L20.6338086,5.39301194 C20.8901172,6.93228147 20.3983828,8.52603538 19.2652109,9.65925022 Z" id="options" fill="#B988FF" fill-rule="nonzero"></path>
    </g>
</svg>