<?xml version="1.0" encoding="UTF-8"?>
<svg width="17px" height="20px" viewBox="0 0 17 20" version="1.1" xmlns="http://www.w3.org/2000/svg" xmlns:xlink="http://www.w3.org/1999/xlink">
    <!-- Generator: Sketch 59.1 (86144) - https://sketch.com -->
    <title>icon/re-air/enabled</title>
    <desc>Created with Sketch.</desc>
    <g id="icon/re-air/enabled" stroke="none" stroke-width="1" fill="none" fill-rule="evenodd">
        <g id="re-air" fill="#B988FF" fill-rule="nonzero">
            <path d="M13.3839427,0.18707489 C13.0463767,-0.0967951542 12.5425551,-0.0524603524 12.258685,0.285143172 C11.974815,0.622746696 12.0191498,1.12653084 12.3567533,1.41040088 L14.0049295,2.81114097 L6.10947797,2.81114097 C3.60684581,2.81391189 1.57860352,4.84215419 1.57579515,7.34482379 L1.57579515,8.7782533 C1.57579515,9.21901762 1.93343172,9.57665419 2.37419604,9.57665419 C2.81496035,9.57665419 3.17259692,9.21901762 3.17259692,8.7782533 L3.17259692,7.33081938 C3.17540529,5.70971586 4.488337,4.3967467 6.10947797,4.39393833 L14.0096101,4.39393833 L12.3614339,5.79467841 C12.0238678,6.07854846 11.9794956,6.58237004 12.2633656,6.91993612 C12.5472357,7.2575022 13.0510573,7.30187445 13.3886233,7.01800441 L16.713022,4.21652423 C17.0505881,3.93310352 17.0949604,3.42931938 16.8115396,3.0917533 C16.7816586,3.05625551 16.7485198,3.02311674 16.713022,2.99323568 L13.3839427,0.18707489 Z" id="Shape"></path>
            <path d="M14.6025881,9.58129736 C14.1618238,9.58129736 13.8041872,9.93893392 13.8041872,10.3796982 L13.8041872,11.8271322 C13.8013789,13.4482357 12.4884471,14.7612048 10.8673062,14.7640132 L2.96717401,14.7640132 L4.61535022,13.3632731 C5.00148238,13.1499119 5.14156388,12.664326 4.9281652,12.2781564 C4.71480396,11.8920242 4.22921806,11.7519427 3.84304846,11.9653414 C3.75434141,12.0143568 3.67544493,12.0797357 3.61145154,12.1586322 L0.287052863,14.9601123 C-0.0505132159,15.243533 -0.0948854626,15.7473172 0.188535242,16.0848833 C0.2184163,16.1203811 0.251555066,16.1535198 0.287052863,16.1834009 L3.61145154,18.9848436 C3.94901762,19.2687137 4.45283921,19.2243789 4.73670925,18.8867753 C5.0205793,18.5491718 4.97624449,18.0453877 4.63864097,17.7615176 L2.99046476,16.3607775 L10.8672313,16.3607775 C13.3698634,16.3579692 15.3981432,14.3297269 15.4009141,11.8270947 L15.4009141,10.3797357 C15.4009141,9.93848458 15.0433524,9.58129736 14.6025881,9.58129736 Z" id="Shape"></path>
        </g>
    </g>
</svg>