<?xml version="1.0" encoding="UTF-8"?>
<svg width="17px" height="20px" viewBox="0 0 17 20" version="1.1" xmlns="http://www.w3.org/2000/svg" xmlns:xlink="http://www.w3.org/1999/xlink">
    <!-- Generator: Sketch 59.1 (86144) - https://sketch.com -->
    <title>icon/re-air/disabled</title>
    <desc>Created with Sketch.</desc>
    <g id="icon/re-air/disabled" stroke="none" stroke-width="1" fill="none" fill-rule="evenodd">
        <g id="re-air" fill="#A6A6A6" fill-rule="nonzero">
            <path d="M12.258685,0.285143172 C12.5425551,-0.0524603524 13.0463767,-0.0967951542 13.3839427,0.18707489 L13.3839427,0.18707489 L16.713022,2.99323568 C16.7485198,3.02311674 16.7816586,3.05625551 16.8115396,3.0917533 C17.0949604,3.42931938 17.0505881,3.93310352 16.713022,4.21652423 L16.713022,4.21652423 L13.3886233,7.01800441 C13.0510573,7.30187445 12.5472357,7.2575022 12.2633656,6.91993612 C11.9794956,6.58237004 12.0238678,6.07854846 12.3614339,5.79467841 L12.3614339,5.79467841 L14.0096101,4.39393833 L6.10947797,4.39393833 C5.69680978,4.39465321 5.30411287,4.48026366 4.94791339,4.6342417 L13.3726295,13.3570386 C13.6455492,12.9115553 13.803216,12.3877707 13.8041872,11.8271322 L13.8041872,11.8271322 L13.8041872,10.3796982 C13.8041872,9.93893392 14.1618238,9.58129736 14.6025881,9.58129736 C15.0433524,9.58129736 15.4009141,9.93848458 15.4009141,10.3797357 L15.4009141,10.3797357 L15.4009141,11.8270947 C15.3997927,12.839914 15.0669266,13.7750361 14.5051316,14.5296526 L16.7211638,16.8254756 C17.104813,17.222756 17.0937627,17.8558246 16.6964823,18.2394738 C16.2992019,18.623123 15.6661334,18.6120728 15.2824842,18.2147923 L15.2824842,18.2147923 L12.9845841,15.834937 C12.3526244,16.1698807 11.6320807,16.3599192 10.8672313,16.3607775 L10.8672313,16.3607775 L2.99046476,16.3607775 L4.63864097,17.7615176 C4.97624449,18.0453877 5.0205793,18.5491718 4.73670925,18.8867753 C4.45283921,19.2243789 3.94901762,19.2687137 3.61145154,18.9848436 L3.61145154,18.9848436 L0.287052863,16.1834009 C0.251555066,16.1535198 0.2184163,16.1203811 0.188535242,16.0848833 C-0.0948854626,15.7473172 -0.0505132159,15.243533 0.287052863,14.9601123 L0.287052863,14.9601123 L3.61145154,12.1586322 C3.67544493,12.0797357 3.75434141,12.0143568 3.84304846,11.9653414 C4.22921806,11.7519427 4.71480396,11.8920242 4.9281652,12.2781564 C5.14156388,12.664326 5.00148238,13.1499119 4.61535022,13.3632731 L4.61535022,13.3632731 L2.96717401,14.7640132 L10.8673062,14.7640132 C11.194042,14.7634472 11.5082581,14.709661 11.8017516,14.6108582 L3.49066388,6.00376225 C3.28798944,6.40227674 3.17342438,6.85317281 3.17259692,7.33081938 L3.17259692,7.33081938 L3.17259692,8.7782533 C3.17259692,9.21901762 2.81496035,9.57665419 2.37419604,9.57665419 C1.93343172,9.57665419 1.57579515,9.21901762 1.57579515,8.7782533 L1.57579515,8.7782533 L1.57579515,7.34482379 C1.57684466,6.40955795 1.86076045,5.54054927 2.34659216,4.81874811 L0.69465837,3.10865654 C0.311009146,2.71137614 0.322059399,2.07830759 0.7193398,1.69465837 C1.1166202,1.31100915 1.74968875,1.3220594 2.13333797,1.7193398 L2.13333797,1.7193398 L3.79984522,3.44494652 C4.47622005,3.04314461 5.26589874,2.81207498 6.10947797,2.81114097 L6.10947797,2.81114097 L14.0049295,2.81114097 L12.3567533,1.41040088 C12.0191498,1.12653084 11.974815,0.622746696 12.258685,0.285143172 Z" id="noreair"></path>
        </g>
    </g>
</svg>