<?xml version="1.0" encoding="UTF-8"?>
<svg width="29px" height="29px" viewBox="0 0 29 29" version="1.1" xmlns="http://www.w3.org/2000/svg" xmlns:xlink="http://www.w3.org/1999/xlink">
    <!-- Generator: Sketch 59.1 (86144) - https://sketch.com -->
    <title>icon/help/default</title>
    <desc>Created with Sketch.</desc>
    <g id="icon/help/default" stroke="none" stroke-width="1" fill="none" fill-rule="evenodd">
        <g id="help" fill="#A6A6A6" fill-rule="nonzero">
            <path d="M14.0166667,23.2 C14.8174796,23.2 15.4666667,22.5508129 15.4666667,21.75 C15.4666667,20.9491871 14.8174796,20.3 14.0166667,20.3 C13.2158538,20.3 12.5666667,20.9491871 12.5666667,21.75 C12.5666667,22.5508129 13.2158538,23.2 14.0166667,23.2 Z M14.5,0 C22.5148184,0 29,6.48625781 29,14.5 C29,22.5148184 22.5137422,29 14.5,29 C6.48518164,29 0,22.5137422 0,14.5 C0,6.48518164 6.48625781,0 14.5,0 Z M14.5,2.265625 C7.73750586,2.265625 2.265625,7.73841211 2.265625,14.5 C2.265625,21.2624941 7.73841211,26.734375 14.5,26.734375 C21.2624941,26.734375 26.734375,21.2615879 26.734375,14.5 C26.734375,7.73750586 21.2615879,2.265625 14.5,2.265625 Z M14.0166667,7.73333333 C16.4152567,7.73333333 18.3666667,9.7157181 18.3666667,12.152381 C18.3666667,14.2077352 16.9782554,15.9398362 15.1041667,16.431621 L15.1041667,16.431621 L15.1041667,18.2285714 C15.1041667,18.8387314 14.6172929,19.3333333 14.0166667,19.3333333 C13.4160404,19.3333333 12.9291667,18.8387314 12.9291667,18.2285714 L12.9291667,18.2285714 L12.9291667,15.4666667 C12.9291667,14.8565067 13.4160404,14.3619048 14.0166667,14.3619048 C15.2159617,14.3619048 16.1916667,13.3707124 16.1916667,12.152381 C16.1916667,10.9340495 15.2159617,9.94285714 14.0166667,9.94285714 C12.8173717,9.94285714 11.8416667,10.9340495 11.8416667,12.152381 C11.8416667,12.762541 11.3547929,13.2571429 10.7541667,13.2571429 C10.1535404,13.2571429 9.66666667,12.762541 9.66666667,12.152381 C9.66666667,9.7157181 11.6180767,7.73333333 14.0166667,7.73333333 Z" id="Combined-Shape"></path>
        </g>
    </g>
</svg>