<?xml version="1.0" encoding="UTF-8"?>
<svg width="29px" height="30px" viewBox="0 0 29 30" version="1.1" xmlns="http://www.w3.org/2000/svg" xmlns:xlink="http://www.w3.org/1999/xlink">
    <!-- Generator: Sketch 59.1 (86144) - https://sketch.com -->
    <title>icon/notification/default</title>
    <desc>Created with Sketch.</desc>
    <g id="icon/notification/default" stroke="none" stroke-width="1" fill="none" fill-rule="evenodd">
        <g id="notification" fill="#A6A6A6" fill-rule="nonzero">
            <path d="M27.8601802,22.2962861 C25.253396,20.0419478 22.8410517,16.8613321 22.8410517,8.92029262 C22.8410517,4.32141722 19.0995079,0.58 14.500506,0.58 C9.90087158,0.58 6.15882184,4.32141722 6.15882184,8.92029262 C6.15882184,16.8685429 3.747363,20.045996 1.13830168,22.2984367 C0.414939931,22.928437 0,23.8357386 0,24.7878233 C0,25.3118115 0.424807405,25.7366189 0.948795575,25.7366189 L9.95286558,25.7366189 C10.3920947,27.8445896 12.2638786,29.4333795 14.5,29.4333795 C16.7361214,29.4333795 18.6080318,27.8447161 19.0471344,25.7366189 L28.0512044,25.7366189 C28.5751926,25.7366189 29,25.3118115 29,24.7878233 C29,23.8280217 28.584048,22.9193286 27.8601802,22.2962861 Z M14.5,27.5357883 C13.3184332,27.5357883 12.3087882,26.7857338 11.9216797,25.7366189 L17.0783203,25.7366189 C16.6912118,26.7857338 15.6815668,27.5357883 14.5,27.5357883 Z M2.2712901,23.8390277 C2.30582626,23.8015819 2.34263953,23.7659072 2.38147689,23.7321301 C6.35920746,20.2979961 8.05628648,15.8682594 8.05628648,8.92029262 C8.05628648,5.36774898 10.9472033,2.47759115 14.5003795,2.47759115 C18.0530497,2.47759115 20.943334,5.36774898 20.943334,8.92029262 C20.943334,15.8619341 22.640666,20.2915443 26.6204207,23.7330156 C26.6592581,23.7665398 26.6960713,23.8018349 26.730734,23.8390277 L2.2712901,23.8390277 L2.2712901,23.8390277 Z" id="Shape"></path>
        </g>
    </g>
</svg>