<?xml version="1.0" encoding="UTF-8"?>
<svg width="102px" height="102px" viewBox="0 0 102 102" version="1.1" xmlns="http://www.w3.org/2000/svg" xmlns:xlink="http://www.w3.org/1999/xlink">
    <!-- Generator: Sketch 59.1 (86144) - https://sketch.com -->
    <title>button/icon/pause/pressed</title>
    <desc>Created with Sketch.</desc>
    <defs>
        <linearGradient x1="50%" y1="-16.71634%" x2="50%" y2="132.178756%" id="linearGradient-1">
            <stop stop-color="#7B7B7B" offset="0%"></stop>
            <stop stop-color="#820014" offset="100%"></stop>
        </linearGradient>
    </defs>
    <g id="button/icon/pause/pressed" stroke="none" stroke-width="1" fill="none" fill-rule="evenodd">
        <g id="pause-button" fill="url(#linearGradient-1)" fill-rule="nonzero">
            <path d="M40.6808381,35.5967048 C37.8747048,35.5967048 35.5967048,37.8721143 35.5967048,40.6808381 L35.5967048,61.0138095 C35.5967048,63.8205905 37.8747048,66.0979429 40.6808381,66.0979429 C43.4869714,66.0979429 45.7649714,63.8205905 45.7649714,61.0138095 L45.7649714,40.6808381 C45.7649714,37.8695238 43.4869714,35.5967048 40.6808381,35.5967048 Z M94.8768381,25.4284381 C80.8377524,1.1119619 49.7429714,-7.22030476 25.4284381,6.82137143 C1.1119619,20.8588381 -7.22030476,51.952 6.82137143,76.2675048 C20.8585143,100.583981 51.9523238,108.917219 76.267181,94.8768381 C100.583981,80.8351619 108.917543,49.7429714 94.8768381,25.4284381 Z M71.1843429,86.0685714 C51.7340762,97.3021714 26.8567619,90.6362286 15.6264,71.1820762 C4.39344762,51.7318095 11.0616571,26.8544952 30.5125714,15.6267238 C49.9641333,4.39377143 74.8401524,11.0590667 86.0711619,30.5125714 C97.3024952,49.9654286 90.6362286,74.8372381 71.1843429,86.0685714 Z M61.0160762,35.5967048 C58.2105905,35.5967048 55.9319429,37.8721143 55.9319429,40.6808381 L55.9319429,61.0138095 C55.9319429,63.8205905 58.2105905,66.1005333 61.0160762,66.1005333 C63.8228571,66.1005333 66.1002095,63.823181 66.1002095,61.0138095 L66.1002095,40.6808381 C66.1002095,37.8695238 63.8228571,35.5967048 61.0160762,35.5967048 Z" id="Shape"></path>
        </g>
    </g>
</svg>