<?xml version="1.0" encoding="UTF-8"?>
<svg width="150px" height="85px" viewBox="0 0 150 85" version="1.1" xmlns="http://www.w3.org/2000/svg" xmlns:xlink="http://www.w3.org/1999/xlink">
    <!-- Generator: Sketch 59.1 (86144) - https://sketch.com -->
    <title>graphic/footer/logo/artist</title>
    <desc>Created with Sketch.</desc>
    <g id="graphic/footer/logo/artist" stroke="none" stroke-width="1" fill="none" fill-rule="evenodd">
        <g id="Logo" transform="translate(1.000000, 27.000000)">
            <g id="graphiclogo" transform="translate(60.000000, 0.000000)" fill="#6C6C6C">
                <rect id="Rectangle-5" x="0" y="3.78" width="2.7" height="18.36"></rect>
                <path d="M6.03,0 C6.77558441,-1.36961635e-16 7.38,0.604415588 7.38,1.35 L7.38,23.85 C7.38,24.5955844 6.77558441,25.2 6.03,25.2 C5.28441559,25.2 4.68,24.5955844 4.68,23.85 L4.68,1.35 C4.68,0.604415588 5.28441559,1.36961635e-16 6.03,0 Z" id="Rectangle-5-Copy"></path>
                <path d="M10.89,5.22 C11.6355844,5.22 12.24,5.82441559 12.24,6.57 L12.24,19.89 C12.24,20.6355844 11.6355844,21.24 10.89,21.24 C10.1444156,21.24 9.54,20.6355844 9.54,19.89 L9.54,6.57 C9.54,5.82441559 10.1444156,5.22 10.89,5.22 Z" id="Rectangle-5-Copy-2"></path>
                <path d="M15.75,1.26 C16.4955844,1.26 17.1,1.86441559 17.1,2.61 L17.1,22.23 C17.1,22.9755844 16.4955844,23.58 15.75,23.58 C15.0044156,23.58 14.4,22.9755844 14.4,22.23 L14.4,2.61 C14.4,1.86441559 15.0044156,1.26 15.75,1.26 Z" id="Rectangle-5-Copy-3"></path>
                <path d="M20.61,0 C21.3555844,-1.36961635e-16 21.96,0.604415588 21.96,1.35 L21.96,23.85 C21.96,24.5955844 21.3555844,25.2 20.61,25.2 C19.8644156,25.2 19.26,24.5955844 19.26,23.85 L19.26,1.35 C19.26,0.604415588 19.8644156,1.36961635e-16 20.61,0 Z" id="Rectangle-5-Copy-4"></path>
                <path d="M25.65,6.12 C26.3955844,6.12 27,6.72441559 27,7.47 L27,18.81 C27,19.5555844 26.3955844,20.16 25.65,20.16 C24.9044156,20.16 24.3,19.5555844 24.3,18.81 L24.3,7.47 C24.3,6.72441559 24.9044156,6.12 25.65,6.12 Z" id="Rectangle-5-Copy-5"></path>
            </g>
            <g id="HnT-Text" transform="translate(0.000000, 34.000000)" fill="#CACACA">
                <text id="HEAR-Copy-3" font-family="Gulim" font-size="13" font-weight="normal" letter-spacing="5.161765">
                    <tspan x="0" y="12">HEAR</tspan>
                </text>
                <text id="NOT-Copy-3" font-family="Gasalt-Black, Gasalt" font-size="11" font-weight="700" letter-spacing="2.6345">
                    <tspan x="59" y="10">NOT</tspan>
                </text>
                <text id="THERE" font-family="Gulim" font-size="14" font-weight="normal" letter-spacing="3.5">
                    <tspan x="89" y="12">THERE</tspan>
                </text>
            </g>
        </g>
        <text id="Powered-by" font-family="SFCompactRounded-Regular, SF Compact Rounded" font-size="10" font-weight="normal" fill="#6C6C6C">
            <tspan x="49.8291016" y="17">Powered by</tspan>
        </text>
    </g>
</svg>