<?xml version="1.0" encoding="UTF-8"?>
<svg width="17px" height="17px" viewBox="0 0 17 17" version="1.1" xmlns="http://www.w3.org/2000/svg" xmlns:xlink="http://www.w3.org/1999/xlink">
    <!-- Generator: Sketch 59.1 (86144) - https://sketch.com -->
    <title>icon/credits/free-disabled</title>
    <desc>Created with Sketch.</desc>
    <g id="icon/credits/free-disabled" stroke="none" stroke-width="1" fill="none" fill-rule="evenodd">
        <g id="credits" fill="#A6A6A6" fill-rule="nonzero" stroke="#A6A6A6" stroke-width="0.2">
            <path d="M14.5104297,2.48957031 C12.9049922,0.884132812 10.7704297,0 8.5,0 C6.22957031,0 4.09500781,0.884132812 2.48957031,2.48957031 C0.884166016,4.09500781 0,6.22957031 0,8.5 C0,10.7704297 0.884166016,12.9049922 2.48957031,14.5104297 C4.09500781,16.1158672 6.22957031,17 8.5,17 C10.7704297,17 12.9049922,16.1158672 14.5104297,14.5104297 C16.115834,12.9049922 17,10.7704297 17,8.5 C17,6.22957031 16.115834,4.09500781 14.5104297,2.48957031 Z M8.5,16.0039062 C4.36232617,16.0039062 0.99609375,12.6376738 0.99609375,8.5 C0.99609375,4.36232617 4.36232617,0.99609375 8.5,0.99609375 C12.6376738,0.99609375 16.0039062,4.36232617 16.0039062,8.5 C16.0039062,12.6376738 12.6376738,16.0039062 8.5,16.0039062 Z M9.03347461,8.00195312 L7.96652539,8.00195312 C7.35867578,8.00195312 6.86418164,7.50745898 6.86418164,6.89964258 C6.86418164,6.29179297 7.35870898,5.79729883 7.96652539,5.79729883 L10.1003906,5.79729883 C10.3754453,5.79729883 10.5984375,5.57430664 10.5984375,5.29925195 C10.5984375,5.02419727 10.3754453,4.80120508 10.1003906,4.80120508 L8.99804688,4.80120508 L8.99804688,3.69886133 C8.99804688,3.42380664 8.77505469,3.20081445 8.5,3.20081445 C8.22494531,3.20081445 8.00195313,3.42380664 8.00195313,3.69886133 L8.00195313,4.80120508 L7.96655859,4.80120508 C6.80946289,4.80120508 5.86812109,5.74258008 5.86812109,6.89964258 C5.86812109,8.05670508 6.80949609,8.99804687 7.96655859,8.99804687 L9.03350781,8.99804687 C9.64132422,8.99804687 10.1358184,9.49257422 10.1358184,10.1003906 C10.1358184,10.708207 9.64132422,11.2027344 9.03350781,11.2027344 L6.89964258,11.2027344 C6.62458789,11.2027344 6.4015957,11.4257266 6.4015957,11.7007812 C6.4015957,11.9758359 6.62458789,12.1988281 6.89964258,12.1988281 L8.00195313,12.1988281 L8.00195313,13.3012051 C8.00195313,13.5762598 8.22494531,13.799252 8.5,13.799252 C8.77505469,13.799252 8.99804688,13.5762598 8.99804688,13.3012051 L8.99804688,12.1988281 L9.03347461,12.1988281 C10.1905371,12.1988281 11.1318789,11.2574531 11.1318789,10.1003906 C11.1318789,8.94332812 10.1905371,8.00195312 9.03347461,8.00195312 Z M0.7193398,0.69465837 C0.322059399,1.07830759 0.311009146,1.71137614 0.69465837,2.10865654 L14.5878258,16.4954525 C14.971475,16.8927329 15.6045435,16.9037832 16.001824,16.520134 C16.3991044,16.1364848 16.4101546,15.5034162 16.0265054,15.1061358 L2.13333797,0.7193398 C1.74968875,0.322059399 1.1166202,0.311009146 0.7193398,0.69465837 Z" id="Combined-Shape"></path>
        </g>
    </g>
</svg>