<?xml version="1.0" encoding="UTF-8"?>
<svg width="17px" height="17px" viewBox="0 0 17 17" version="1.1" xmlns="http://www.w3.org/2000/svg" xmlns:xlink="http://www.w3.org/1999/xlink">
    <!-- Generator: Sketch 59.1 (86144) - https://sketch.com -->
    <title>icon/credits/enabled</title>
    <desc>Created with Sketch.</desc>
    <g id="icon/credits/enabled" stroke="none" stroke-width="1" fill="none" fill-rule="evenodd">
        <g id="credits" fill="#B988FF" fill-rule="nonzero" stroke="#B988FF" stroke-width="0.2">
            <path d="M8.5,0 C10.7704297,0 12.9049922,0.884132812 14.5104297,2.48957031 C16.115834,4.09500781 17,6.22957031 17,8.5 C17,10.7704297 16.115834,12.9049922 14.5104297,14.5104297 C12.9049922,16.1158672 10.7704297,17 8.5,17 C6.22957031,17 4.09500781,16.1158672 2.48957031,14.5104297 C0.884166016,12.9049922 0,10.7704297 0,8.5 C0,6.22957031 0.884166016,4.09500781 2.48957031,2.48957031 C4.09500781,0.884132812 6.22957031,0 8.5,0 Z M8.5,0.99609375 C4.36232617,0.99609375 0.99609375,4.36232617 0.99609375,8.5 C0.99609375,12.6376738 4.36232617,16.0039062 8.5,16.0039062 C12.6376738,16.0039062 16.0039062,12.6376738 16.0039062,8.5 C16.0039062,4.36232617 12.6376738,0.99609375 8.5,0.99609375 Z M8.5,3.20081445 C8.77505469,3.20081445 8.99804688,3.42380664 8.99804688,3.69886133 L8.99804688,3.69886133 L8.99804688,4.80120508 L10.1003906,4.80120508 C10.3754453,4.80120508 10.5984375,5.02419727 10.5984375,5.29925195 C10.5984375,5.57430664 10.3754453,5.79729883 10.1003906,5.79729883 L10.1003906,5.79729883 L7.96652539,5.79729883 C7.35870898,5.79729883 6.86418164,6.29179297 6.86418164,6.89964258 C6.86418164,7.50745898 7.35867578,8.00195312 7.96652539,8.00195312 L7.96652539,8.00195312 L9.03347461,8.00195312 C10.1905371,8.00195312 11.1318789,8.94332812 11.1318789,10.1003906 C11.1318789,11.2574531 10.1905371,12.1988281 9.03347461,12.1988281 L9.03347461,12.1988281 L8.99804688,12.1988281 L8.99804688,13.3012051 C8.99804688,13.5762598 8.77505469,13.799252 8.5,13.799252 C8.22494531,13.799252 8.00195313,13.5762598 8.00195313,13.3012051 L8.00195313,13.3012051 L8.00195313,12.1988281 L6.89964258,12.1988281 C6.62458789,12.1988281 6.4015957,11.9758359 6.4015957,11.7007812 C6.4015957,11.4257266 6.62458789,11.2027344 6.89964258,11.2027344 L6.89964258,11.2027344 L9.03350781,11.2027344 C9.64132422,11.2027344 10.1358184,10.708207 10.1358184,10.1003906 C10.1358184,9.49257422 9.64132422,8.99804687 9.03350781,8.99804687 L9.03350781,8.99804687 L7.96655859,8.99804687 C6.80949609,8.99804687 5.86812109,8.05670508 5.86812109,6.89964258 C5.86812109,5.74258008 6.80946289,4.80120508 7.96655859,4.80120508 L7.96655859,4.80120508 L8.00195313,4.80120508 L8.00195313,3.69886133 C8.00195313,3.42380664 8.22494531,3.20081445 8.5,3.20081445 Z" id="Combined-Shape"></path>
        </g>
    </g>
</svg>