<?xml version="1.0" encoding="UTF-8"?>
<svg width="28px" height="28px" viewBox="0 0 28 28" version="1.1" xmlns="http://www.w3.org/2000/svg" xmlns:xlink="http://www.w3.org/1999/xlink">
    <!-- Generator: Sketch 59.1 (86144) - https://sketch.com -->
    <title>icon/tips/default</title>
    <desc>Created with Sketch.</desc>
    <g id="icon/tips/default" stroke="none" stroke-width="1" fill="none" fill-rule="evenodd">
        <g id="tip" transform="translate(14.000000, 14.000000) scale(-1, 1) translate(-14.000000, -14.000000) " fill="#B988FF" fill-rule="nonzero">
            <path d="M12.8697917,18.9540692 C13.0827851,18.7406494 13.0827851,18.3952546 12.8697917,18.1818348 C12.6565851,17.9690546 12.3111903,17.9690546 12.0977705,18.1818348 C11.8849903,18.3952546 11.8849903,18.7406494 12.0977705,18.9540692 C12.3111903,19.1668494 12.6565851,19.1668494 12.8697917,18.9540692 Z" id="Shape" transform="translate(12.483861, 18.567952) scale(-1, 1) translate(-12.483861, -18.567952) "></path>
            <path d="M6.31240864,27.7840217 C6.52390961,27.9972283 6.86823833,27.9995736 7.08251098,27.788499 L9.72797881,25.1822612 C10.1774184,24.7328216 10.3140838,24.0674038 10.1164413,23.4889741 L10.6854898,22.9401803 C10.9918677,22.6442495 11.3952546,22.4811465 11.8216679,22.4811465 L19.075597,22.4811465 C20.3625122,22.4811465 21.578856,21.9869335 22.5009747,21.0895468 C22.5389254,21.0526621 22.2129325,21.4366472 27.4497137,15.1777534 C28.2264255,14.2588329 28.1102278,12.8789596 27.1904544,12.101395 C26.2764376,11.3310794 24.9072247,11.4417337 24.1283808,12.3448769 L20.9085344,15.6542702 C20.5019493,15.1538743 19.8819444,14.841953 19.2120492,14.841953 L13.1273453,14.841953 C12.2615132,14.4797149 11.3428058,14.2963572 10.3948891,14.2963572 C7.76733067,14.2963572 5.47301416,15.5099293 4.24174587,17.7852704 C3.72301416,17.6869822 3.17592593,17.8439023 2.78234646,18.2374817 L0.186555813,20.8409479 C-0.0253716023,21.0535149 -0.0257979883,21.3974172 0.185702986,21.6106238 L6.31240864,27.7840217 Z M10.3946759,15.3875487 C11.2304459,15.3875487 12.038499,15.5557687 12.796875,15.8875183 C12.8659539,15.9177936 12.9403631,15.9333577 13.015625,15.9333577 L19.2120492,15.9333577 C19.8036976,15.9333577 20.3034539,16.4158443 20.3034539,17.0245492 C20.3034539,17.6264315 19.8139315,18.1159539 19.2120492,18.1159539 L14.7600816,18.1159539 C14.4588207,18.1159539 14.2144859,18.3602888 14.2144859,18.6615497 C14.2144859,18.9630239 14.4588207,19.2071455 14.7600816,19.2071455 L19.2120492,19.2071455 C20.4156006,19.2071455 21.3946455,18.2281006 21.3946455,17.0245492 C21.3946455,16.9286062 21.3878229,16.8335161 21.3754569,16.7392788 C24.4901925,13.5375548 24.9293982,13.0876888 24.9481604,13.0653021 C25.3370492,12.6062683 26.0274123,12.5480629 26.4866594,12.9352461 C26.9463328,13.3239218 27.0045383,14.0138584 26.6145834,14.4754508 L21.7204252,20.3262671 C21.0057566,21.012366 20.0674342,21.3899549 19.075597,21.3899549 L11.8216679,21.3899549 C11.110837,21.3899549 10.4379569,21.6617934 9.92754022,22.1549403 L9.46381579,22.602461 L5.18902288,18.3278813 C6.18810916,16.4535819 8.06283503,15.3875487 10.3946759,15.3875487 L10.3946759,15.3875487 Z M3.5545809,19.0086501 C3.73452729,18.8287037 4.01084308,18.7962963 4.23023269,18.9318957 C4.32468324,18.9894615 4.05348441,18.7425682 8.95638402,23.6386452 C9.17449441,23.8567556 9.16276803,24.2042824 8.95936894,24.4076815 L6.7040692,26.6295078 L1.34256212,21.227065 L3.5545809,19.0086501 Z" id="Shape" transform="translate(13.995692, 19.766976) scale(-1, 1) translate(-13.995692, -19.766976) "></path>
            <g id="credits" transform="translate(11.905263, 6.000000) scale(-1, 1) translate(-11.905263, -6.000000) translate(5.905263, 0.000000)">
                <path d="M10.2027239,1.75049251 C9.073892,0.621660636 7.57301626,0 5.97660819,0 C4.38020011,0 2.87932438,0.621660636 1.75049251,1.75049251 C0.621683982,2.87932438 0,4.38020011 0,5.97660819 C0,7.57301626 0.621683982,9.073892 1.75049251,10.2027239 C2.87932438,11.3315557 4.38020011,11.9532164 5.97660819,11.9532164 C7.57301626,11.9532164 9.073892,11.3315557 10.2027239,10.2027239 C11.3315324,9.073892 11.9532164,7.57301626 11.9532164,5.97660819 C11.9532164,4.38020011 11.3315324,2.87932438 10.2027239,1.75049251 Z M5.97660819,11.2528326 C3.06728404,11.2528326 0.700383772,8.88593234 0.700383772,5.97660819 C0.700383772,3.06728404 3.06728404,0.700383772 5.97660819,0.700383772 C8.88593234,0.700383772 11.2528326,3.06728404 11.2528326,5.97660819 C11.2528326,8.88593234 8.88593234,11.2528326 5.97660819,11.2528326 Z" id="Shape" stroke="#B988FF" stroke-width="0.2"></path>
                <path d="M6.35171039,5.6264163 L5.60150599,5.6264163 C5.17410846,5.6264163 4.82641461,5.27872245 4.82641461,4.85134827 C4.82641461,4.42395075 5.17413181,4.0762569 5.60150599,4.0762569 L7.10189145,4.0762569 C7.29529075,4.0762569 7.45208333,3.91946432 7.45208333,3.72606501 C7.45208333,3.53266571 7.29529075,3.37587313 7.10189145,3.37587313 L6.32680007,3.37587313 L6.32680007,2.60078175 C6.32680007,2.40738245 6.17000749,2.25058987 5.97660819,2.25058987 C5.78320888,2.25058987 5.6264163,2.40738245 5.6264163,2.60078175 L5.6264163,3.37587313 L5.60152933,3.37587313 C4.7879402,3.37587313 4.12605418,4.03778248 4.12605418,4.85134827 C4.12605418,5.66491406 4.78796354,6.32680007 5.60152933,6.32680007 L6.35173374,6.32680007 C6.77910791,6.32680007 7.12680176,6.67451727 7.12680176,7.10189145 C7.12680176,7.52926562 6.77910791,7.87698282 6.35173374,7.87698282 L4.85134827,7.87698282 C4.65794897,7.87698282 4.50115639,8.0337754 4.50115639,8.22717471 C4.50115639,8.42057401 4.65794897,8.57736659 4.85134827,8.57736659 L5.6264163,8.57736659 L5.6264163,9.35248131 C5.6264163,9.54588062 5.78320888,9.7026732 5.97660819,9.7026732 C6.17000749,9.7026732 6.32680007,9.54588062 6.32680007,9.35248131 L6.32680007,8.57736659 L6.35171039,8.57736659 C7.16527618,8.57736659 7.82716219,7.91545724 7.82716219,7.10189145 C7.82716219,6.28832566 7.16527618,5.6264163 6.35171039,5.6264163 Z" id="Shape"></path>
            </g>
        </g>
    </g>
</svg>