<?xml version="1.0" encoding="UTF-8"?>
<svg width="29px" height="29px" viewBox="0 0 29 29" version="1.1" xmlns="http://www.w3.org/2000/svg" xmlns:xlink="http://www.w3.org/1999/xlink">
    <!-- Generator: Sketch 59.1 (86144) - https://sketch.com -->
    <title>icon/show/default</title>
    <desc>Created with Sketch.</desc>
    <g id="icon/show/default" stroke="none" stroke-width="1" fill="none" fill-rule="evenodd">
        <g id="Avatar" transform="translate(-1.000000, -1.000000)" fill-rule="nonzero" stroke="#A6A6A6">
            <g id="avatar" transform="translate(0.907407, 0.222222)">
                <path d="M14.5246056,15.7407407 C14.5452077,15.7407407 14.5658099,15.7407407 14.5905324,15.7407407 C14.5987732,15.7407407 14.6070141,15.7407407 14.6152549,15.7407407 C14.6276162,15.7407407 14.6440979,15.7407407 14.6564591,15.7407407 C15.8637426,15.7201013 16.8402825,15.2949298 17.5613562,14.4817377 C19.1477184,12.6902383 18.8840115,9.61909642 18.8551685,9.32601702 C18.752158,7.1258576 17.7138118,6.0732485 16.8567641,5.58203092 C16.2180988,5.2146497 15.4723026,5.01651152 14.6399774,5 L14.6111345,5 C14.6070141,5 14.5987732,5 14.5946528,5 L14.5699303,5 C14.1125635,5 13.2143116,5.07430182 12.3531436,5.5655194 C11.4878551,6.05673698 10.4330272,7.10934609 10.3300167,9.32601702 C10.3011737,9.61909642 10.0374668,12.6902383 11.623829,14.4817377 C12.3407823,15.2949298 13.3173222,15.7201013 14.5246056,15.7407407 Z M11.4149785,15.8409899 C11.6701904,15.665464 12.0216298,15.726694 12.2015332,15.9756959 C12.3814367,16.2246978 12.3186797,16.5675856 12.0634678,16.7431116 C11.9923431,16.7880135 10.32719,17.9228091 8.24365656,18.4453049 C7.26883069,18.7841108 7.16005184,19.8005284 7.13076523,20.731224 L7.12867332,20.7837797 L7.12867332,20.7837797 L7.12658142,20.833274 C7.11821382,21.2006538 7.14750043,21.7680516 7.21444127,22.0946115 C7.89640099,22.4701553 10.5698505,23.7723128 14.594668,23.7723128 C18.6362207,23.7723128 21.292935,22.4742373 21.9707109,22.0986935 C22.0376517,21.7721336 22.0627546,21.2047358 22.0585707,20.837356 C22.0543869,20.8047 22.0543869,20.772044 22.0543869,20.735306 C22.0251003,19.8046104 21.9163215,18.7881928 20.9414956,18.4493869 C19.0894659,17.9849462 17.5680083,17.0399384 17.202818,16.8012674 L17.1216844,16.7471936 C16.8664725,16.5716676 16.8037154,16.2287798 16.9836189,15.9797779 C17.1635224,15.730776 17.5149618,15.669546 17.7701737,15.8450719 C17.7869089,15.8573179 19.3558347,16.9186375 21.2427294,17.3880673 L21.2427294,17.3880673 L21.2845674,17.4003133 C23.1003374,18.0044491 23.1547269,19.8944143 23.1798297,20.70265 C23.1798297,20.739388 23.1840135,20.772044 23.1840135,20.8047 L23.1840135,20.8047 L23.1848323,20.875345 C23.1877063,21.1821182 23.1774389,22.1578824 22.983191,22.6620092 C22.941353,22.7681412 22.8618607,22.8579452 22.7656333,22.9191751 C22.6401192,22.9967331 19.6319656,24.8703704 14.5988518,24.8703704 C9.56573799,24.8703704 6.55758435,23.0008151 6.43207029,22.9191751 C6.33165904,22.8579452 6.25635061,22.7681412 6.21451259,22.6620092 C5.99277108,22.1150215 5.99695488,21.0251279 6.00113869,20.812864 L6.00113869,20.812864 L6.00113869,20.800618 C6.00532249,20.767962 6.00532249,20.735306 6.00532249,20.698568 C6.0304253,19.8944143 6.08481473,18.0044491 7.90058479,17.3962313 C7.9131362,17.3921493 7.92568761,17.3880673 7.94242281,17.3839853 C9.83768512,16.9145555 11.3982433,15.8532359 11.4149785,15.8409899 Z M14.6152549,6.11865517 C15.7277687,6.14342244 17.6190421,6.59748911 17.7467752,9.39619096 C17.7467752,9.4085746 17.7467752,9.42095824 17.7508956,9.42921399 C17.755016,9.45810915 18.0434455,12.2650668 16.7331515,13.7428474 C16.2139784,14.3290062 15.5217476,14.6179577 14.6111345,14.6262135 L14.5699303,14.6262135 L14.5699303,14.6262135 C13.6634376,14.6179577 12.9670864,14.3290062 12.4520337,13.7428474 C11.1458601,12.2733225 11.4260488,9.45398127 11.4301692,9.42921399 C11.4301692,9.41683036 11.4342896,9.40444672 11.4342896,9.39619096 C11.5702635,6.43650184 13.667558,6.11865517 14.5658099,6.11865517 L14.6152549,6.11865517 L14.6152549,6.11865517 Z" id="Combined-Shape" stroke-width="0.5" fill="#A6A6A6"></path>
                <circle id="Oval-2-Copy" stroke-width="1.5" cx="14.5925926" cy="15.2777778" r="14"></circle>
            </g>
        </g>
    </g>
</svg>