<?xml version="1.0" encoding="UTF-8"?>
<svg width="31px" height="31px" viewBox="0 0 31 31" version="1.1" xmlns="http://www.w3.org/2000/svg" xmlns:xlink="http://www.w3.org/1999/xlink">
    <!-- Generator: Sketch 59.1 (86144) - https://sketch.com -->
    <title>icon/slidemenu/duplicate</title>
    <desc>Created with Sketch.</desc>
    <g id="icon/slidemenu/duplicate" stroke="none" stroke-width="1" fill="none" fill-rule="evenodd">
        <g id="duplicate" fill="#A6A6A6" fill-rule="nonzero">
            <path d="M24.5138248,5.25423729 C25.194369,5.25423729 25.7457627,5.80616942 25.7457627,6.48620042 L25.7457627,29.7680369 C25.7457627,30.4480679 25.194369,31 24.5138248,31 L1.23193791,31 C0.55139369,31 0,30.448595 0,29.7680369 L0,6.48620042 C0,5.80564227 0.55139369,5.25423729 1.23193791,5.25423729 L24.5138248,5.25423729 Z M23.2813597,7.71816355 L2.46387582,7.71816355 L2.46387582,28.5355466 L23.2813597,28.5355466 L23.2813597,7.71816355 Z M29.7680621,1.234568e-13 C30.4486063,1.234568e-13 31,0.551920835 31,1.23193791 L31,24.5138248 C31,25.1938419 30.4486063,25.7457627 29.7680621,25.7457627 L27.266759,25.7457627 C26.5862148,25.7457627 26.0348211,25.1938419 26.0348211,24.5138248 C26.0348211,23.8332806 26.5862148,23.2818869 27.266759,23.2818869 L28.5361242,23.2818869 L28.5361242,2.46440296 L7.71811311,2.46440296 L7.71811311,3.83498001 C7.71811311,4.51552423 7.16671942,5.06691792 6.4861752,5.06691792 C5.80563098,5.06691792 5.25423729,4.51499708 5.25423729,3.83498001 L5.25423729,1.23193791 C5.25423729,0.551920835 5.80563098,1.234568e-13 6.4861752,1.234568e-13 L29.7680621,1.234568e-13 Z"></path>
        </g>
    </g>
</svg>