<?xml version="1.0" encoding="UTF-8"?>
<svg width="31px" height="31px" viewBox="0 0 31 31" version="1.1" xmlns="http://www.w3.org/2000/svg" xmlns:xlink="http://www.w3.org/1999/xlink">
    <!-- Generator: Sketch 59.1 (86144) - https://sketch.com -->
    <title>icon/slidemenu/edit</title>
    <desc>Created with Sketch.</desc>
    <g id="icon/slidemenu/edit" stroke="none" stroke-width="1" fill="none" fill-rule="evenodd">
        <g id="edit" fill="#A6A6A6" fill-rule="nonzero">
            <path d="M14.8219293,2.3125 C15.6146308,2.3125 16.2562321,2.95505 16.2562321,3.74685 C16.2562321,4.53865 15.6145308,5.18125 14.8218293,5.18125 L14.8218293,5.18125 L2.86870567,5.18125 L2.86870567,28.13125 L25.818751,28.13125 L25.818751,16.17815 C25.818751,15.38635 26.4604523,14.74375 27.2531538,14.74375 C28.0459054,14.74375 28.6875567,15.38635 28.6875567,16.1781 L28.6875567,16.1781 L28.6875567,29.0875 C28.6875567,30.14415 27.830755,31 26.7750529,31 L26.7750529,31 L1.91250378,31 C0.856801692,31 0,30.14415 0,29.0875 L0,29.0875 L0,4.225 C0,3.16835 0.856801692,2.3125 1.91250378,2.3125 L1.91250378,2.3125 Z M25.3679187,4.04690523 L26.9531486,5.63213135 L15.4602526,17.125 L13.8750227,17.125 L13.8750227,15.5397739 L25.3679187,4.04690523 Z M30.6875408,4.16439685 L26.8347048,0.311568983 C26.6252439,0.102061665 26.3503322,0 26.0754206,0 C25.800509,0 25.5256442,0.102061665 25.3161364,0.312505328 L10.4062065,15.2214674 L10.4062065,20.59375 L15.7785005,20.59375 L30.687494,5.68478794 C30.8978913,5.47434427 31,5.19948004 31,4.9246158 C31,4.64881522 30.8979381,4.37484051 30.6875408,4.16439685 Z" id="Shape"></path>
        </g>
    </g>
</svg>