<?xml version="1.0" encoding="UTF-8"?>
<svg width="25px" height="5px" viewBox="0 0 25 5" version="1.1" xmlns="http://www.w3.org/2000/svg" xmlns:xlink="http://www.w3.org/1999/xlink">
    <!-- Generator: Sketch 59.1 (86144) - https://sketch.com -->
    <title>icon/slidemenu/more</title>
    <desc>Created with Sketch.</desc>
    <g id="icon/slidemenu/more" stroke="none" stroke-width="1" fill="none" fill-rule="evenodd">
        <g id="More" transform="translate(0.825000, 0.000000)" fill="#A6A6A6">
            <path d="M2.35,0 C3.64786916,0 4.7,1.05213084 4.7,2.35 C4.7,3.64786916 3.64786916,4.7 2.35,4.7 C1.05213084,4.7 0,3.64786916 0,2.35 C0,1.05213084 1.05213084,0 2.35,0 Z M11.75,0 C13.0478692,0 14.1,1.05213084 14.1,2.35 C14.1,3.64786916 13.0478692,4.7 11.75,4.7 C10.4521308,4.7 9.4,3.64786916 9.4,2.35 C9.4,1.05213084 10.4521308,0 11.75,0 Z M21.15,0 C22.4478692,0 23.5,1.05213084 23.5,2.35 C23.5,3.64786916 22.4478692,4.7 21.15,4.7 C19.8521308,4.7 18.8,3.64786916 18.8,2.35 C18.8,1.05213084 19.8521308,0 21.15,0 Z" id="more"></path>
        </g>
    </g>
</svg>