<?xml version="1.0" encoding="UTF-8"?>
<svg width="22px" height="22px" viewBox="0 0 22 22" version="1.1" xmlns="http://www.w3.org/2000/svg" xmlns:xlink="http://www.w3.org/1999/xlink">
    <!-- Generator: Sketch 59.1 (86144) - https://sketch.com -->
    <title>icon/crediticon/pressed</title>
    <desc>Created with Sketch.</desc>
    <g id="icon/crediticon/pressed" stroke="none" stroke-width="1" fill="none" fill-rule="evenodd">
        <g id="credits" fill="#B988FF" fill-rule="nonzero">
            <path d="M18.7782031,3.22179688 C16.7005781,1.14417188 13.9382031,0 11,0 C8.06179688,0 5.29942188,1.14417188 3.22179688,3.22179688 C1.14421484,5.29942188 0,8.06179688 0,11 C0,13.9382031 1.14421484,16.7005781 3.22179688,18.7782031 C5.29942188,20.8558281 8.06179688,22 11,22 C13.9382031,22 16.7005781,20.8558281 18.7782031,18.7782031 C20.8557852,16.7005781 22,13.9382031 22,11 C22,8.06179688 20.8557852,5.29942188 18.7782031,3.22179688 Z M11,1.2890625 C16.3546367,1.2890625 20.7109375,5.64536328 20.7109375,11 C20.7109375,16.3546367 16.3546367,20.7109375 11,20.7109375 C5.64536328,20.7109375 1.2890625,16.3546367 1.2890625,11 C1.2890625,5.64536328 5.64536328,1.2890625 11,1.2890625 Z M11,4.14223047 C10.6440469,4.14223047 10.3554688,4.43080859 10.3554688,4.78676172 L10.3554688,6.21332422 L10.3096641,6.21332422 C8.81224609,6.21332422 7.59403906,7.43157422 7.59403906,8.92894922 C7.59403906,10.4263242 8.81228906,11.6445313 10.3096641,11.6445313 L11.6904219,11.6445313 C12.4770078,11.6445313 13.1169414,12.2845078 13.1169414,13.0710938 C13.1169414,13.8576797 12.4770078,14.4976563 11.6904219,14.4976563 L8.92894922,14.4976563 C8.57299609,14.4976563 8.28441797,14.7862344 8.28441797,15.1421875 C8.28441797,15.4981406 8.57299609,15.7867188 8.92894922,15.7867188 L10.3554688,15.7867188 L10.3554688,17.2133242 C10.3554688,17.5692773 10.6440469,17.8578555 11,17.8578555 C11.3559531,17.8578555 11.6445313,17.5692773 11.6445313,17.2133242 L11.6445313,15.7867188 L11.6903789,15.7867188 C13.1877539,15.7867188 14.4059609,14.5684688 14.4059609,13.0710938 C14.4059609,11.5737188 13.1877539,10.3554688 11.6903789,10.3554688 L10.3096211,10.3554688 C9.52299219,10.3554688 8.88305859,9.71553516 8.88305859,8.92894922 C8.88305859,8.14232031 9.52303516,7.50238672 10.3096211,7.50238672 L13.0710938,7.50238672 C13.4270469,7.50238672 13.715625,7.21380859 13.715625,6.85785547 C13.715625,6.50190234 13.4270469,6.21332422 13.0710938,6.21332422 L11.6445313,6.21332422 L11.6445313,4.78676172 C11.6445313,4.43080859 11.3559531,4.14223047 11,4.14223047 Z" id="Combined-Shape"></path>
        </g>
    </g>
</svg>