<?xml version="1.0" encoding="UTF-8"?>
<svg width="21px" height="21px" viewBox="0 0 21 21" version="1.1" xmlns="http://www.w3.org/2000/svg" xmlns:xlink="http://www.w3.org/1999/xlink">
    <!-- Generator: Sketch 59.1 (86144) - https://sketch.com -->
    <title>icon/ticketcap/enabled</title>
    <desc>Created with Sketch.</desc>
    <g id="icon/ticketcap/enabled" stroke="none" stroke-width="1" fill="none" fill-rule="evenodd">
        <g id="ticket" fill="#B988FF" fill-rule="nonzero">
            <path d="M20.499834,6.95357054 L18.9323714,5.39869917 C18.4680622,5.86296473 17.9039813,6.09527178 17.240695,6.09527178 C16.5771909,6.09527178 16.0134585,5.86296473 15.5491929,5.39869917 C15.0845788,4.93425934 14.8526203,4.37043983 14.8526203,3.70693568 C14.8526203,3.04338797 15.0848838,2.47956846 15.5491929,2.01508506 L13.9941037,0.460213693 C13.6869461,0.153491701 13.3118216,4.35684647e-05 12.8683817,4.35684647e-05 C12.4246805,4.35684647e-05 12.049556,0.15353527 11.7427033,0.460213693 L0.460344398,11.7300685 C0.153404564,12.0370519 0,12.4124813 0,12.8557469 C0,13.299361 0.153404564,13.6744419 0.460344398,13.9814689 L2.01521577,15.5489315 C2.4796556,15.084666 3.04360581,14.8523589 3.70702282,14.8523589 C4.37039627,14.8523589 4.93421577,15.084361 5.39861203,15.5489315 C5.86292116,16.0132407 6.09514108,16.5771473 6.09514108,17.2406079 C6.09514108,17.9040685 5.86305187,18.4676701 5.39861203,18.9322842 L6.96603112,20.4996162 C7.27292739,20.8064689 7.64822614,20.9598734 8.09188382,20.9598734 C8.53558506,20.9598734 8.91088382,20.8064689 9.21756224,20.4996162 L20.499834,9.20492739 C20.8066867,8.89811826 20.9599606,8.52295021 20.9599606,8.07924896 C20.9599606,7.63559129 20.8066432,7.2604668 20.499834,6.95357054 Z M17.1287241,9.44132988 L9.44137344,17.1284627 C9.29228216,17.2780332 9.10567842,17.3525788 8.88164938,17.3525788 C8.65783817,17.3525788 8.47127801,17.2780332 8.32201245,17.1284627 L3.81890664,12.6258361 C3.6613195,12.4680747 3.58259129,12.2815581 3.58259129,12.066112 C3.58259129,11.8504917 3.6613195,11.6637137 3.81890664,11.506083 L11.5062137,3.8188195 C11.65561,3.66951037 11.8423008,3.59479046 12.0662427,3.59479046 C12.2899232,3.59479046 12.4765705,3.66951037 12.6259668,3.8188195 L17.1287676,8.32175104 C17.286529,8.47942531 17.3652573,8.66602905 17.3652573,8.88160581 C17.3652573,9.097139 17.2864855,9.28369917 17.1287241,9.44132988 Z" id="Shape"></path>
            <polygon id="Shape" points="12.0665041 4.95107676 15.9973817 8.88173651 8.8823029 15.9968154 4.95164315 12.0661556"></polygon>
        </g>
    </g>
</svg>