<?xml version="1.0" encoding="UTF-8"?>
<svg width="29px" height="29px" viewBox="0 0 29 29" version="1.1" xmlns="http://www.w3.org/2000/svg" xmlns:xlink="http://www.w3.org/1999/xlink">
    <!-- Generator: Sketch 59.1 (86144) - https://sketch.com -->
    <title>icon/logout/default</title>
    <desc>Created with Sketch.</desc>
    <g id="icon/logout/default" stroke="none" stroke-width="1" fill="none" fill-rule="evenodd">
        <g id="logout" fill="#A6A6A6" fill-rule="nonzero">
            <path d="M14.4518555,0.0481445312 C15.1178359,0.0481445312 15.6561484,0.586570313 15.6561484,1.25255078 C15.6561484,1.91853125 15.1178359,2.45684375 14.4518555,2.45684375 L14.4518555,2.45684375 L3.61293555,2.45684375 C2.94820117,2.45684375 2.40864258,2.9963457 2.40864258,3.66113672 L2.40864258,3.66113672 L2.40864258,25.3389199 C2.40864258,26.0036543 2.94814453,26.5432129 3.61293555,26.5432129 L3.61293555,26.5432129 L14.4518555,26.5432129 C15.1178359,26.5432129 15.6561484,27.0815254 15.6561484,27.7475059 C15.6561484,28.4134863 15.1178359,28.9517988 14.4518555,28.9517988 L14.4518555,28.9517988 L3.61293555,28.9517988 C1.62099805,28.9517988 0,27.3308008 0,25.3388633 L0,25.3388633 L0,3.66113672 C0,1.66919922 1.62099805,0.0481445312 3.61293555,0.0481445312 L3.61293555,0.0481445312 Z M19.6159512,6.4286543 C20.0832363,5.95536523 20.846752,5.94930469 21.3188516,6.41658984 L21.3188516,6.41658984 L28.641125,13.6425176 C28.8711426,13.8701563 29,14.1772617 29,14.4998867 C29,14.822625 28.8699531,15.1309766 28.641125,15.3573691 L28.641125,15.3573691 L21.3188516,22.5832969 C21.085209,22.8145605 20.7793496,22.9301641 20.4734336,22.9301641 C20.1627031,22.9301641 19.8519727,22.8097461 19.6159512,22.5712891 C19.1499121,22.098 19.1535371,21.3356738 19.6280156,20.8683887 L19.6280156,20.8683887 L24.8607598,15.704293 L10.8388633,15.704293 C10.1728828,15.704293 9.63457031,15.1659238 9.63457031,14.4999434 C9.63457031,13.8339629 10.1728828,13.2956504 10.8388633,13.2956504 L10.8388633,13.2956504 L24.8607598,13.2956504 L19.6280156,8.13155469 C19.1534805,7.66426953 19.148666,6.90194336 19.6159512,6.4286543 Z"></path>
        </g>
    </g>
</svg>