<?xml version="1.0" encoding="UTF-8"?>
<svg width="24px" height="24px" viewBox="0 0 24 24" version="1.1" xmlns="http://www.w3.org/2000/svg" xmlns:xlink="http://www.w3.org/1999/xlink">
    <!-- Generator: Sketch 59.1 (86144) - https://sketch.com -->
    <title>icon/edit/pressed</title>
    <desc>Created with Sketch.</desc>
    <g id="icon/edit/pressed" stroke="none" stroke-width="1" fill="none" fill-rule="evenodd">
        <g id="edit" fill="#D8D8D8" fill-rule="nonzero">
            <path d="M21.3750153,11.25 C20.7532888,11.25 20.2499939,11.754 20.2499939,12.3750196 L20.2499939,20.75 C20.2499939,21.3022847 19.8022786,21.75 19.2499939,21.75 L3.24996446,21.75 C2.69767971,21.75 2.24996446,21.3022847 2.24996446,20.75 L2.24996446,4.75 C2.24996446,4.19771525 2.69767971,3.75 3.24996446,3.75 L11.6249602,3.75 L11.6249602,3.75 C12.2466867,3.75 12.7499816,3.246 12.7499816,2.62498039 C12.7499816,2.00396078 12.2467651,1.5 11.6250386,1.5 L1.5,1.5 C0.672001098,1.5 0,2.1712549 0,3 L0,22.5 C0,23.3287451 0.672001098,24 1.5,24 L21.0000343,24 C21.8280357,24 22.5000368,23.3287451 22.5000368,22.5 L22.5000368,12.3749804 C22.5000368,11.754 21.996781,11.25 21.3750153,11.25 Z M23.7382741,3.48823529 L20.5110139,0.260980392 C20.3355626,0.0854901961 20.1052877,0 19.8750129,0 C19.644738,0 19.4145023,0.0854901961 19.2390118,0.261764706 L6.74997181,12.75 L6.74997181,17.25 L11.2499718,17.25 L23.7382349,4.76176471 C23.9144704,4.5854902 24,4.3552549 24,4.12501961 C24,3.894 23.9145097,3.6645098 23.7382741,3.48823529 Z M10.5000147,15 L9.0000147,15 L9.0000147,13.5 L19.8750129,2.62501961 L21.3750153,4.12501961 L10.5000147,15 Z" id="Shape"></path>
        </g>
    </g>
</svg>