<?xml version="1.0" encoding="UTF-8"?>
<svg width="27px" height="17px" viewBox="0 0 27 17" version="1.1" xmlns="http://www.w3.org/2000/svg" xmlns:xlink="http://www.w3.org/1999/xlink">
    <!-- Generator: Sketch 59.1 (86144) - https://sketch.com -->
    <title>icon/viewers/hidden</title>
    <desc>Created with Sketch.</desc>
    <g id="icon/viewers/hidden" stroke="none" stroke-width="1" fill="none" fill-rule="evenodd">
        <g id="viewers" fill="#A6A6A6" fill-rule="nonzero">
            <path d="M25.9875751,7.86868089 C25.7539273,7.5490625 20.186887,0.0426532452 13.0767698,0.0426532452 C5.96665264,0.0426532452 0.399356971,7.5490625 0.165964543,7.8683744 C-0.0553215144,8.17159555 -0.0553215144,8.58285457 0.165964543,8.88607572 C0.399356971,9.20569411 5.96665264,16.7121034 13.0767698,16.7121034 C20.186887,16.7121034 25.7539273,9.20564303 25.9875751,8.88633113 C26.2091677,8.58316106 26.2091677,8.17159555 25.9875751,7.86868089 Z M13.0767698,14.9876863 C7.83941106,14.9876863 3.30330228,10.0055319 1.96051683,8.37679087 C3.3015655,6.74661959 7.82817308,1.76707031 13.0767698,1.76707031 C18.3138732,1.76707031 22.8496755,6.74835637 24.1930228,8.37796575 C22.8519742,10.0080859 18.3253666,14.9876863 13.0767698,14.9876863 Z" id="Shape"></path>
            <path d="M13.0767698,3.20410156 C10.3548834,3.20410156 8.14035907,5.41862588 8.14035907,8.14051232 C8.14035907,10.8623988 10.3548834,13.0769231 13.0767698,13.0769231 C15.7986563,13.0769231 18.0131806,10.8623988 18.0131806,8.14051232 C18.0131806,5.41862588 15.7986563,3.20410156 13.0767698,3.20410156 Z M13.0767698,11.4314203 C11.2620814,11.4314203 9.78586182,9.95515202 9.78586182,8.14051232 C9.78586182,6.32587262 11.2621301,4.84960431 13.0767698,4.84960431 C14.8914095,4.84960431 16.3676778,6.32587262 16.3676778,8.14051232 C16.3676778,9.95515202 14.8914583,11.4314203 13.0767698,11.4314203 Z" id="Shape"></path>
        </g>
        <rect id="Rectangle-10" stroke="#A6A6A6" fill="#A6A6A6" transform="translate(13.360582, 8.607396) scale(-1, 1) rotate(44.000000) translate(-13.360582, -8.607396) " x="12.8605819" y="-1.89260383" width="1" height="21" rx="0.5"></rect>
    </g>
</svg>