<?xml version="1.0" encoding="UTF-8"?>
<svg width="27px" height="17px" viewBox="0 0 27 17" version="1.1" xmlns="http://www.w3.org/2000/svg" xmlns:xlink="http://www.w3.org/1999/xlink">
    <!-- Generator: Sketch 59.1 (86144) - https://sketch.com -->
    <title>icon/viewers/hidden-VIP</title>
    <desc>Created with Sketch.</desc>
    <g id="icon/viewers/hidden-VIP" stroke="none" stroke-width="1" fill="none" fill-rule="evenodd">
        <g id="viewers" fill="#FFC349" fill-rule="nonzero">
            <path d="M13.0767698,0.0426532452 C20.186887,0.0426532452 25.7539273,7.5490625 25.9875751,7.86868089 C26.2091677,8.17159555 26.2091677,8.58316106 25.9875751,8.88633113 C25.841926,9.08538066 23.6237716,12.0772874 20.2512615,14.3027345 L21.0265054,15.1061358 C21.4101546,15.5034162 21.3991044,16.1364848 21.001824,16.520134 C20.6045435,16.9037832 19.971475,16.8927329 19.5878258,16.4954525 L19.5878258,16.4954525 L18.4691954,15.3370456 C16.8374616,16.154622 15.0144155,16.7121034 13.0767698,16.7121034 C12.3992175,16.7121034 11.7356755,16.6439379 11.0894244,16.5203219 L11.1144968,16.663119 L10.6771894,16.4335244 C9.19925881,16.0939461 7.8176671,15.4720261 6.57306072,14.7252991 L2.88550323,16.663119 L3.59323242,12.5365091 C1.54581189,10.7500612 0.274898532,9.03525496 0.165964543,8.88607572 C-0.0553215144,8.58285457 -0.0553215144,8.17159555 0.165964543,7.8683744 C0.312545323,7.66783239 2.56302886,4.63241444 5.97826737,2.4020775 L5.69465837,2.10865654 C5.31100915,1.71137614 5.3220594,1.07830759 5.7193398,0.69465837 C6.1166202,0.311009146 6.74968875,0.322059399 7.13333797,0.7193398 L7.13333797,0.7193398 L7.76757435,1.37628858 C9.37799204,0.581363068 11.1720194,0.0426532452 13.0767698,0.0426532452 Z M10.3593261,12.2598644 L10.774497,14.6792061 C11.5205099,14.8754669 12.2907423,14.9876863 13.0767698,14.9876863 C14.5242815,14.9876863 15.9168786,14.6089366 17.2028834,14.0261537 L15.6099634,12.3760718 C14.8689399,12.8209423 14.0021783,13.0769231 13.0767698,13.0769231 C12.0735355,13.0769231 11.139227,12.7760764 10.3593261,12.2598644 Z M13.0767698,1.76707031 C11.6612257,1.76707031 10.2981974,2.129272 9.03601389,2.69028377 L10.3360864,4.03663677 C11.1206366,3.51096636 12.0635509,3.20410156 13.0767698,3.20410156 C15.7986563,3.20410156 18.0131806,5.41862588 18.0131806,8.14051232 C18.0131806,9.21494118 17.6681197,10.2103143 17.0829999,11.0216296 L19.024668,13.0340357 C21.5148557,11.4527205 23.4045476,9.33640186 24.1930228,8.37796575 C22.8496755,6.74835637 18.3138732,1.76707031 13.0767698,1.76707031 Z M12.902,9.57265325 L11.4418346,10.9958693 C11.923774,11.2728889 12.4820984,11.4314203 13.0767698,11.4314203 C13.55497,11.4314203 14.0096665,11.3289069 14.4200401,11.1447023 L12.902,9.57265325 Z M13.0767698,4.84960431 C12.508698,4.84960431 11.9737866,4.99427846 11.5069449,5.24871743 L15.9120848,9.8098294 C16.2014881,9.32013792 16.3676778,8.74937169 16.3676778,8.14051232 C16.3676778,6.32587262 14.8914095,4.84960431 13.0767698,4.84960431 Z M10.1214226,6.69336238 C9.90658536,7.13033506 9.78586182,7.62158834 9.78586182,8.14051232 C9.78586182,8.18568591 9.78677665,8.2306498 9.78858875,8.27538645 L11.952,8.58865325 Z M7.20468688,3.67284498 C4.67705884,5.25904208 2.75697454,7.40862132 1.96051683,8.37679087 C2.01155838,8.43870207 2.06721393,8.50545859 2.12734661,8.57660261 L4.94275162,8.16844052 L7,4 L8.34615193,6.72830166 C8.48154419,6.27559681 8.680294,5.84997241 8.93206194,5.46176788 Z" id="Combined-Shape"></path>
        </g>
    </g>
</svg>