<?xml version="1.0" encoding="UTF-8"?>
<svg width="29px" height="29px" viewBox="0 0 29 29" version="1.1" xmlns="http://www.w3.org/2000/svg" xmlns:xlink="http://www.w3.org/1999/xlink">
    <!-- Generator: Sketch 59.1 (86144) - https://sketch.com -->
    <title>icon/graph/default</title>
    <desc>Created with Sketch.</desc>
    <g id="icon/graph/default" stroke="none" stroke-width="1" fill="none" fill-rule="evenodd">
        <g id="statistics" fill="#A6A6A6" fill-rule="nonzero">
            <path d="M4.3046875,13.59375 C4.99057007,13.59375 5.61361694,13.3209458 6.07227324,12.8786621 L8.57286836,14.1289597 C8.56003569,14.2320633 8.55273438,14.3367157 8.55273438,14.4433594 C8.55273438,15.8487549 9.69616699,16.9921875 11.1015625,16.9921875 C12.506958,16.9921875 13.6503906,15.8487549 13.6503906,14.4433594 C13.6503906,14.050415 13.5607834,13.6778259 13.4012603,13.3450623 L16.8001404,9.94618222 C17.1329041,10.1057053 17.5054932,10.1953125 17.8984375,10.1953125 C19.303833,10.1953125 20.4472656,9.05187988 20.4472656,7.64648438 C20.4472656,7.38098145 20.4063339,7.12499238 20.3306656,6.88426973 L23.2835007,4.669754 C23.6879501,4.93990327 24.173378,5.09765625 24.6953125,5.09765625 C26.100708,5.09765625 27.2441406,3.95422363 27.2441406,2.54882812 C27.2441406,1.14343262 26.100708,0 24.6953125,0 C23.289917,0 22.1464844,1.14343262 22.1464844,2.54882812 C22.1464844,2.81433105 22.1874161,3.07032012 22.2630844,3.31104277 L19.3102493,5.5255585 C18.9057999,5.25540923 18.420372,5.09765625 17.8984375,5.09765625 C16.493042,5.09765625 15.3496094,6.24108887 15.3496094,7.64648438 C15.3496094,8.03942871 15.4392166,8.41201782 15.5987397,8.74478149 L12.1998596,12.1436615 C11.8670959,11.9841385 11.4945068,11.8945312 11.1015625,11.8945312 C10.4156799,11.8945312 9.79263306,12.1673355 9.33397676,12.6096191 L6.83338164,11.3593216 C6.84621431,11.256218 6.85351562,11.1515655 6.85351562,11.0449219 C6.85351562,9.63952637 5.71008301,8.49609375 4.3046875,8.49609375 C2.89929199,8.49609375 1.75585938,9.63952637 1.75585938,11.0449219 C1.75585938,12.4503174 2.89929199,13.59375 4.3046875,13.59375 Z M24.6953125,1.69921875 C25.1637039,1.69921875 25.5449219,2.08043672 25.5449219,2.54882812 C25.5449219,3.01721953 25.1637039,3.3984375 24.6953125,3.3984375 C24.2269211,3.3984375 23.8457031,3.01721953 23.8457031,2.54882812 C23.8457031,2.08043672 24.2269211,1.69921875 24.6953125,1.69921875 Z M17.8984375,6.796875 C18.3668289,6.796875 18.7480469,7.17809297 18.7480469,7.64648438 C18.7480469,8.11487578 18.3668289,8.49609375 17.8984375,8.49609375 C17.4300461,8.49609375 17.0488281,8.11487578 17.0488281,7.64648438 C17.0488281,7.17809297 17.4300461,6.796875 17.8984375,6.796875 Z M11.1015625,13.59375 C11.5699539,13.59375 11.9511719,13.974968 11.9511719,14.4433594 C11.9511719,14.9117508 11.5699539,15.2929688 11.1015625,15.2929688 C10.6331711,15.2929688 10.2519531,14.9117508 10.2519531,14.4433594 C10.2519531,13.974968 10.6331711,13.59375 11.1015625,13.59375 Z M26.3945312,8.49609375 C26.8638077,8.49609375 27.2441406,8.87642671 27.2441406,9.34570312 L27.2441406,9.34570312 L27.2441406,27.3007812 L28.1503906,27.3007812 C28.619667,27.3007812 29,27.6811142 29,28.1503906 C29,28.619667 28.619667,29 28.1503906,29 L28.1503906,29 L0.849609375,29 C0.380332961,29 0,28.619667 0,28.1503906 C0,27.6811142 0.380332961,27.3007812 0.849609375,27.3007812 L0.849609375,27.3007812 L1.75585938,27.3007812 L1.75585938,17.8417969 C1.75585938,17.3725205 2.13619234,16.9921875 2.60546875,16.9921875 L2.60546875,16.9921875 L6.00390625,16.9921875 C6.47318266,16.9921875 6.85351562,17.3725205 6.85351562,17.8417969 L6.85351562,17.8417969 L6.85351562,27.3007812 L8.55273438,27.3007812 L8.55273438,21.2402344 C8.55273438,20.770958 8.93306734,20.390625 9.40234375,20.390625 L9.40234375,20.390625 L12.8007812,20.390625 C13.2700577,20.390625 13.6503906,20.770958 13.6503906,21.2402344 L13.6503906,21.2402344 L13.6503906,27.3007812 L15.3496094,27.3007812 L15.3496094,14.4433594 C15.3496094,13.974083 15.7299423,13.59375 16.1992188,13.59375 L16.1992188,13.59375 L19.5976562,13.59375 C20.0669327,13.59375 20.4472656,13.974083 20.4472656,14.4433594 L20.4472656,14.4433594 L20.4472656,27.3007812 L22.1464844,27.3007812 L22.1464844,9.34570312 C22.1464844,8.87642671 22.5268173,8.49609375 22.9960938,8.49609375 L22.9960938,8.49609375 Z M25.5449219,10.1953125 L23.8457031,10.1953125 L23.8457031,27.3007812 L25.5449219,27.3007812 L25.5449219,10.1953125 Z M18.7480469,15.2929688 L17.0488281,15.2929688 L17.0488281,27.3007812 L18.7480469,27.3007812 L18.7480469,15.2929688 Z M11.9511719,22.0898438 L10.2519531,22.0898438 L10.2519531,27.3007812 L11.9511719,27.3007812 L11.9511719,22.0898438 Z M5.15429688,18.6914062 L3.45507812,18.6914062 L3.45507812,27.3007812 L5.15429688,27.3007812 L5.15429688,18.6914062 Z M4.3046875,10.1953125 C4.7730789,10.1953125 5.15429688,10.5765305 5.15429688,11.0449219 C5.15429688,11.5133133 4.7730789,11.8945312 4.3046875,11.8945312 C3.8362961,11.8945312 3.45507812,11.5133133 3.45507812,11.0449219 C3.45507812,10.5765305 3.8362961,10.1953125 4.3046875,10.1953125 Z" id="Combined-Shape"></path>
        </g>
    </g>
</svg>