<?xml version="1.0" encoding="UTF-8"?>
<svg width="16px" height="23px" viewBox="0 0 16 23" version="1.1" xmlns="http://www.w3.org/2000/svg" xmlns:xlink="http://www.w3.org/1999/xlink">
    <!-- Generator: Sketch 59.1 (86144) - https://sketch.com -->
    <title>icon/listeners/enabled</title>
    <desc>Created with Sketch.</desc>
    <g id="icon/listeners/enabled" stroke="none" stroke-width="1" fill="none" fill-rule="evenodd">
        <g id="listeners" fill="#B988FF" fill-rule="nonzero">
            <path d="M7.95117188,0 C12.3181172,0 15.8707637,3.55273633 15.8707637,7.91968164 C15.8707637,10.8690273 14.549791,12.157791 13.2717637,13.4051816 C11.999082,14.648709 10.6873184,15.929791 10.6873184,18.837 C10.6873184,21.132418 8.81897266,23 6.52355469,23 C4.22813672,23 2.36055469,21.132418 2.36055469,18.837 C2.36055469,18.4130273 2.70402734,18.0703184 3.12723633,18.0703184 C3.55044531,18.0703184 3.89391797,18.4130273 3.89391797,18.837 C3.89391797,20.2875273 5.07383594,21.4666816 6.52359961,21.4666816 C7.97412695,21.4666816 9.15404492,20.2875273 9.15404492,18.837 C9.15404492,15.2835 10.8407266,13.636709 12.1961992,12.3126816 C13.4412539,11.0975 14.3374902,10.2219727 14.3374902,7.91968164 C14.3374902,4.39839063 11.4724629,1.53336328 7.95117188,1.53336328 C4.42988086,1.53336328 1.56485352,4.39839063 1.56485352,7.91968164 C1.56485352,8.34289063 1.22138086,8.68636328 0.798171875,8.68636328 C0.374962891,8.68636328 0.0314902344,8.34289063 0.0314902344,7.91968164 C0.0314902344,3.55273633 3.58499023,0 7.95117188,0 Z M8.35214453,3.57573633 C10.8177266,3.57573633 12.8241172,5.5828457 12.824207,8.04923633 C12.824207,8.47244531 12.481498,8.81591797 12.0575254,8.81591797 C11.6335527,8.81591797 11.2908438,8.47244531 11.2908438,8.04923633 C11.2908438,6.42773633 9.97216211,5.10905469 8.35218945,5.10905469 C6.73145313,5.10905469 5.41277148,6.42773633 5.41277148,8.04923633 C5.41277148,8.06178339 5.41246958,8.07426036 5.41187265,8.08666038 L5.44532655,9.11038225 C5.90027535,9.17122653 6.33946339,9.32338454 6.7429082,9.56341797 C7.53254492,10.0310547 8.09375391,10.7793184 8.32146289,11.6709727 C8.54917188,12.5633457 8.41651758,13.4902637 7.94573633,14.2821914 C7.47657227,15.0725918 6.72754492,15.6338008 5.83589063,15.8615098 C5.55301758,15.934373 5.26551758,15.9704004 4.97954492,15.9704004 C4.36851758,15.9704004 3.76669922,15.8063457 3.22772656,15.4866367 C2.86358984,15.2704727 2.74396289,14.7997363 2.9594082,14.4355547 C3.17480859,14.071418 3.64554492,13.951791 4.00972656,14.1672363 C4.44901758,14.427918 4.96269922,14.5015 5.45719922,14.3757637 C5.95169922,14.2492637 6.36722656,13.9387637 6.6279082,13.498709 C6.88858984,13.0601816 6.96293555,12.5457363 6.83567188,12.0504727 C6.70917188,11.5559727 6.39867188,11.141209 5.96014453,10.8820547 C5.60364453,10.669709 5.19808984,10.5815273 4.78714453,10.623709 C4.35782617,10.6635996 3.98829883,10.3623086 3.94458984,9.94139062 C3.94419786,9.93768101 3.94383309,9.93397472 3.94349538,9.93027197 L3.93461719,9.83326367 L3.86638086,7.79394531 C3.86279432,7.68997991 3.88012297,7.59017857 3.91458139,7.4985538 C4.18572759,5.29058572 6.0724505,3.57573633 8.35214453,3.57573633 Z" id="Combined-Shape"></path>
        </g>
    </g>
</svg>