<?xml version="1.0" encoding="UTF-8"?>
<svg width="22px" height="22px" viewBox="0 0 22 22" version="1.1" xmlns="http://www.w3.org/2000/svg" xmlns:xlink="http://www.w3.org/1999/xlink">
    <!-- Generator: Sketch 59.1 (86144) - https://sketch.com -->
    <title>icon/calendar/pressed</title>
    <desc>Created with Sketch.</desc>
    <g id="icon/calendar/pressed" stroke="none" stroke-width="1" fill="none" fill-rule="evenodd">
        <g id="calendar" fill="#B988FF" fill-rule="nonzero">
            <path d="M20.6130294,1.28527451 L16.3731765,1.28527451 L16.3731765,0.647058824 C16.3731765,0.28977451 16.083402,0 15.7261176,0 C15.3688333,0 15.0790588,0.28977451 15.0790588,0.647058824 L15.0790588,1.28527451 L11.2988333,1.28527451 L11.2988333,0.647058824 C11.2988333,0.28977451 11.0090588,0 10.6517745,0 C10.2944902,0 10.0047157,0.28977451 10.0047157,0.647058824 L10.0047157,1.28527451 L6.38517647,1.28527451 L6.38517647,0.647058824 C6.38517647,0.28977451 6.09540196,0 5.73811765,0 C5.38083333,0 5.09105882,0.28977451 5.09105882,0.647058824 L5.09105882,1.28527451 L0.690627451,1.28527451 C0.333343137,1.28527451 0.0435686275,1.57504902 0.0435686275,1.93233333 L0.0435686275,16.5528431 C0.0435686275,16.9101275 0.333343137,17.199902 0.690627451,17.199902 L4.66205882,17.199902 C5.29844118,19.9190588 7.74151961,21.9507157 10.6517745,21.9507157 C13.5620294,21.9507157 16.0051078,19.918951 16.6414902,17.199902 L20.6129216,17.199902 C20.9702059,17.199902 21.2599804,16.9101275 21.2599804,16.5528431 L21.2599804,1.93233333 C21.2599804,1.57504902 20.9704216,1.28527451 20.6130294,1.28527451 Z M11.2988333,15.9612157 L11.2988333,12.8309608 C11.2988333,12.4736765 11.0090588,12.183902 10.6517745,12.183902 C10.2944902,12.183902 10.0047157,12.4736765 10.0047157,12.8309608 L10.0047157,16.2293137 C10.0047157,16.4008922 10.0728725,16.5654608 10.1941961,16.6868922 L11.6813529,18.1741569 C11.8077451,18.3004412 11.9732843,18.3636373 12.1389314,18.3636373 C12.3044706,18.3636373 12.4701176,18.3004412 12.5965098,18.1741569 C12.8491863,17.9214804 12.8491863,17.5117843 12.5965098,17.2591078 L11.2988333,15.9612157 Z M5.09105882,2.57939216 L5.09105882,3.16411765 C5.09105882,3.52140196 5.38083333,3.81117647 5.73811765,3.81117647 C6.09540196,3.81117647 6.38517647,3.52140196 6.38517647,3.16411765 L6.38517647,2.57939216 L10.0047157,2.57939216 L10.0047157,3.16411765 C10.0047157,3.52140196 10.2944902,3.81117647 10.6517745,3.81117647 C11.0090588,3.81117647 11.2988333,3.52140196 11.2988333,3.16411765 L11.2988333,2.57939216 L15.0790588,2.57939216 L15.0790588,3.16411765 C15.0790588,3.52140196 15.3688333,3.81117647 15.7261176,3.81117647 C16.083402,3.81117647 16.3731765,3.52140196 16.3731765,3.16411765 L16.3731765,2.57939216 L19.9659706,2.57939216 L19.9659706,5.22543137 L1.33768627,5.22543137 L1.33768627,2.57939216 L5.09105882,2.57939216 L5.09105882,2.57939216 Z M10.6517745,20.656598 C7.97273529,20.656598 5.79311765,18.4769804 5.79311765,15.7979412 C5.79311765,13.118902 7.97273529,10.9392843 10.6517745,10.9392843 C13.3308137,10.9392843 15.5104314,13.1187941 15.5104314,15.7979412 C15.5104314,18.4770882 13.3309216,20.656598 10.6517745,20.656598 Z M16.8018529,15.9057843 C16.8025,15.8697647 16.804549,15.8340686 16.804549,15.7979412 C16.804549,12.4053039 14.0444118,9.64516667 10.6517745,9.64516667 C7.25913725,9.64516667 4.499,12.4053039 4.499,15.7979412 C4.499,15.8340686 4.50115686,15.8697647 4.50169608,15.9057843 L1.33757843,15.9057843 L1.33757843,6.51965686 L19.9658627,6.51965686 L19.9658627,15.9057843 L16.8018529,15.9057843 L16.8018529,15.9057843 Z"></path>
        </g>
    </g>
</svg>