<?xml version="1.0" encoding="UTF-8"?>
<svg width="23px" height="22px" viewBox="0 0 23 22" version="1.1" xmlns="http://www.w3.org/2000/svg" xmlns:xlink="http://www.w3.org/1999/xlink">
    <!-- Generator: Sketch 59.1 (86144) - https://sketch.com -->
    <title>icon/terms/pressed</title>
    <desc>Created with Sketch.</desc>
    <g id="icon/terms/pressed" stroke="none" stroke-width="1" fill="none" fill-rule="evenodd">
        <g id="Terms" fill="#B988FF" fill-rule="nonzero">
            <path d="M19.713267,0.0361099476 C21.433356,0.0361099476 22.827822,1.43051832 22.827822,3.15066492 C22.827822,4.87081152 21.4334136,6.2652199 19.713267,6.2652199 L19.713267,6.2652199 L17.5017487,6.2652199 L17.5017487,18.8708743 C17.4992147,20.5899267 16.1062461,21.9828953 14.3871937,21.985453 L14.3871937,21.985453 L3.12687958,21.985453 C1.53297382,21.9915916 0.191664921,20.7934555 0.0186596859,19.2089948 C-0.168052356,17.4990419 1.06676963,15.9614607 2.77672251,15.7747487 L2.77672251,15.7747487 L2.77672251,3.15066492 C2.77925654,1.43161257 4.17222513,0.0386439791 5.89127749,0.0361099476 L5.89127749,0.0361099476 Z M12.1802827,16.673178 L3.12687958,16.673178 C1.91440314,16.673178 0.931486911,17.6560942 0.931486911,18.8685707 C0.931486911,20.0810471 1.91440314,21.0639634 3.12687958,21.0639634 L3.12687958,21.0639634 L12.1802827,21.0639634 C10.9706283,19.8502775 10.9706283,17.8868063 12.1802827,16.673178 L12.1802827,16.673178 Z M17.4879267,0.957575916 L5.89127749,0.957575916 C4.68830366,0.970188482 3.71909424,1.94763351 3.7166178,3.15066492 L3.7166178,3.15066492 L3.7166178,15.7563194 L14.391801,15.7563194 C14.6462408,15.7563194 14.852534,15.9626126 14.852534,16.2170524 C14.852534,16.4714921 14.6462408,16.6777853 14.391801,16.6777853 C13.1805916,16.6777853 12.198712,17.6596649 12.198712,18.8708743 C12.198712,20.0820838 13.1805916,21.0639634 14.391801,21.0639634 C15.6030105,21.0639634 16.5848901,20.0820838 16.5848901,18.8708743 L16.5848901,18.8708743 L16.5848901,3.15049215 C16.583911,2.32883246 16.9086126,1.54028796 17.4879267,0.957575916 L17.4879267,0.957575916 Z M13.4426911,11.1858482 C13.6971309,11.1858482 13.9034241,11.3921414 13.9034241,11.6465812 C13.9034241,11.9010209 13.6971309,12.1073141 13.4426911,12.1073141 L13.4426911,12.1073141 L6.70216754,12.1073141 C6.44772775,12.1073141 6.24143455,11.9010209 6.24143455,11.6465812 C6.24143455,11.3921414 6.44772775,11.1858482 6.70216754,11.1858482 L6.70216754,11.1858482 Z M13.4426911,7.89621466 C13.6971309,7.89621466 13.9034241,8.10250785 13.9034241,8.35694764 C13.9034241,8.61138743 13.6971309,8.81768063 13.4426911,8.81768063 L13.4426911,8.81768063 L6.70216754,8.81768063 C6.44772775,8.81768063 6.24143455,8.61138743 6.24143455,8.35694764 C6.24143455,8.10250785 6.44772775,7.89621466 6.70216754,7.89621466 L6.70216754,7.89621466 Z M13.4426911,4.60658115 C13.6971309,4.60658115 13.9034241,4.81287435 13.9034241,5.06731414 C13.9034241,5.32175393 13.6971309,5.52804712 13.4426911,5.52804712 L13.4426911,5.52804712 L6.70216754,5.52804712 C6.44772775,5.52804712 6.24143455,5.32175393 6.24143455,5.06731414 C6.24143455,4.81287435 6.44772775,4.60658115 6.70216754,4.60658115 L6.70216754,4.60658115 Z M19.7053194,0.963442318 C18.4941099,0.960225131 17.5095812,1.9394555 17.506356,3.15066492 L17.506356,3.15066492 L17.506356,3.66668586 L19.713267,3.66668586 C19.9677068,3.66668586 20.174,3.87297906 20.174,4.12741885 L20.174,4.12741885 L20.174,5.29768063 C21.1758063,5.07560733 21.8897696,4.18858115 21.892542,3.16241361 C21.8957592,1.95120419 20.9165288,0.966675393 19.7053194,0.963442318 Z" id="Combined-Shape"></path>
        </g>
    </g>
</svg>